<svg width="18" height="18" viewBox="0 0 18 18" fill="none" xmlns="http://www.w3.org/2000/svg">
  <path
    d="M7.77034 5.14564L7.92806 5.14135H14.357C15.0684 5.14129 15.7529 5.41343 16.2701 5.90194C16.7873 6.39046 17.098 7.05834 17.1385 7.76863L17.1428 7.92721V9.26442C16.7603 8.89707 16.3274 8.5862 15.857 8.34123V7.92721C15.857 7.52936 15.699 7.14781 15.4177 6.86649C15.1364 6.58518 14.7548 6.42713 14.357 6.42713H7.92806C7.5516 6.42715 7.1889 6.56871 6.91196 6.82373C6.63503 7.07876 6.46411 7.42858 6.43313 7.80377L6.42799 7.92721V14.3561C6.42802 14.7327 6.56971 15.0955 6.82491 15.3725C7.08011 15.6494 7.43014 15.8203 7.80549 15.851L7.92806 15.8562H8.34123C8.58724 16.3276 8.8984 16.7605 9.26356 17.142H7.92806C7.21648 17.142 6.53186 16.8698 6.01463 16.3811C5.4974 15.8924 5.18678 15.2243 5.1465 14.5138L5.14221 14.357V7.92806C5.14216 7.21648 5.41441 6.53186 5.90311 6.01463C6.39181 5.4974 7.0599 5.18593 7.77034 5.14564ZM11.6414 1.91405L11.686 2.06577L12.28 4.28417H10.9488L10.4448 2.39836C10.3938 2.20797 10.3059 2.02948 10.1859 1.8731C10.066 1.71671 9.91642 1.5855 9.74575 1.48695C9.57508 1.38839 9.38666 1.32444 9.19126 1.29874C8.99586 1.27304 8.79731 1.2861 8.60696 1.33716L2.3975 3.00096C2.03502 3.09816 1.72214 3.3277 1.52061 3.64429C1.31908 3.96087 1.24353 4.34149 1.30888 4.71105L1.33631 4.83791L3.00096 11.0474C3.07904 11.3392 3.24339 11.6006 3.4725 11.7974C3.70161 11.9942 3.98481 12.1173 4.28502 12.1506V13.4415C3.72764 13.4085 3.19302 13.2088 2.75053 12.8682C2.30803 12.5277 1.97808 12.062 1.80347 11.5317L1.7589 11.3808L0.0951002 5.1705C-0.0891922 4.48336 -0.00361675 3.75174 0.334279 3.12568C0.672174 2.49962 1.23678 2.02654 1.91233 1.80347L2.06491 1.7589L8.27437 0.0951002C8.96151 -0.0891922 9.69312 -0.00361675 10.3192 0.334279C10.9452 0.672174 11.4183 1.23678 11.6414 1.91233M18 13.2855C18 12.0351 17.5033 10.8359 16.6191 9.95181C15.735 9.06766 14.5358 8.57095 13.2855 8.57095C12.0351 8.57095 10.8359 9.06766 9.95181 9.95181C9.06766 10.8359 8.57095 12.0351 8.57095 13.2855C8.57095 14.5358 9.06766 15.735 9.95181 16.6191C10.8359 17.5033 12.0351 18 13.2855 18C14.5358 18 15.735 17.5033 16.6191 16.6191C17.5033 15.735 18 14.5358 18 13.2855ZM13.2083 10.2913L13.2855 10.2853L13.3626 10.2922C13.4483 10.3078 13.5271 10.3492 13.5887 10.4107C13.6502 10.4723 13.6916 10.5511 13.7072 10.6368L13.7141 10.7139V12.8569L15.8613 12.8577L15.9385 12.8646C16.0241 12.8802 16.1029 12.9216 16.1645 12.9832C16.2261 13.0447 16.2674 13.1235 16.2831 13.2092L16.2899 13.2863L16.2831 13.3635C16.2674 13.4492 16.2259 13.5282 16.1642 13.5897C16.1024 13.6513 16.0234 13.6926 15.9376 13.7081L15.8605 13.7149H13.7149V15.8605L13.7081 15.9376C13.6924 16.0232 13.6511 16.1021 13.5895 16.1636C13.528 16.2252 13.4491 16.2666 13.3635 16.2822L13.2863 16.2891L13.2092 16.2822C13.1235 16.2666 13.0447 16.2252 12.9832 16.1636C12.9216 16.1021 12.8802 16.0232 12.8646 15.9376L12.8577 15.8605V13.7141H10.7122L10.6351 13.7072C10.5494 13.6916 10.4706 13.6502 10.409 13.5887C10.3475 13.5271 10.3061 13.4483 10.2905 13.3626L10.2836 13.2855L10.2905 13.2083C10.3061 13.1227 10.3475 13.0439 10.409 12.9823C10.4706 12.9207 10.5494 12.8794 10.6351 12.8637L10.7122 12.8569H12.8569V10.7139L12.8637 10.6368C12.8792 10.551 12.9205 10.4719 12.9821 10.4102C13.0436 10.3485 13.1226 10.307 13.2083 10.2913Z"
    fill="currentColor" />
</svg>