<svg xmlns="http://www.w3.org/2000/svg" xmlns:xlink="http://www.w3.org/1999/xlink" width="100" zoomAndPan="magnify" viewBox="0 0 75 74.999997" height="100" preserveAspectRatio="xMidYMid meet" version="1.0"><defs><clipPath id="0c54aedbbf"><path d="M 8.699219 20.738281 L 39 20.738281 L 39 54.488281 L 8.699219 54.488281 Z M 8.699219 20.738281 " clip-rule="nonzero"/></clipPath><clipPath id="d603abbb1b"><path d="M 22 20.738281 L 52 20.738281 L 52 54.488281 L 22 54.488281 Z M 22 20.738281 " clip-rule="nonzero"/></clipPath><clipPath id="e8aaa7dc2e"><path d="M 37 20.738281 L 66.449219 20.738281 L 66.449219 54.488281 L 37 54.488281 Z M 37 20.738281 " clip-rule="nonzero"/></clipPath></defs><g clip-path="url(#0c54aedbbf)"><path fill="#acd4e3" d="M 38.117188 45.203125 L 38.117188 30.035156 C 38.117188 29.445312 37.804688 28.90625 37.300781 28.617188 L 24.226562 21.027344 C 23.722656 20.738281 23.097656 20.738281 22.597656 21.027344 L 9.519531 28.617188 C 9.011719 28.90625 8.699219 29.445312 8.699219 30.035156 L 8.699219 45.203125 C 8.699219 45.789062 9.011719 46.328125 9.519531 46.621094 L 22.597656 54.199219 C 23.105469 54.488281 23.722656 54.488281 24.226562 54.199219 L 37.308594 46.621094 C 37.804688 46.320312 38.117188 45.78125 38.117188 45.203125 " fill-opacity="1" fill-rule="evenodd"/></g><g clip-path="url(#d603abbb1b)"><path fill="#0979bb" d="M 51.800781 45.203125 L 51.800781 30.035156 C 51.800781 29.445312 51.488281 28.90625 50.984375 28.617188 L 37.910156 21.027344 C 37.40625 20.738281 36.777344 20.738281 36.28125 21.027344 L 23.199219 28.617188 C 22.695312 28.90625 22.382812 29.445312 22.382812 30.035156 L 22.382812 45.203125 C 22.382812 45.789062 22.695312 46.328125 23.199219 46.621094 L 36.28125 54.199219 C 36.789062 54.488281 37.40625 54.488281 37.910156 54.199219 L 50.992188 46.621094 C 51.488281 46.320312 51.800781 45.78125 51.800781 45.203125 " fill-opacity="1" fill-rule="evenodd"/></g><g clip-path="url(#e8aaa7dc2e)"><path fill="#1a5e9d" d="M 66.445312 45.203125 L 66.445312 30.035156 C 66.445312 29.445312 66.132812 28.90625 65.628906 28.617188 L 52.554688 21.027344 C 52.050781 20.738281 51.421875 20.738281 50.925781 21.027344 L 37.847656 28.617188 C 37.339844 28.90625 37.027344 29.445312 37.027344 30.035156 L 37.027344 45.203125 C 37.027344 45.789062 37.339844 46.328125 37.847656 46.621094 L 50.925781 54.199219 C 51.433594 54.488281 52.050781 54.488281 52.554688 54.199219 L 65.636719 46.621094 C 66.132812 46.320312 66.445312 45.78125 66.445312 45.203125 " fill-opacity="1" fill-rule="evenodd"/></g></svg>