<svg width="24" height="24" viewBox="0 0 24 24" fill="none" xmlns="http://www.w3.org/2000/svg">
<path d="M19.125 9.80769H4.875M8.71154 7.06731V4.875M15.2885 7.06731L15.2885 4.875M4.875 8.16347L4.875 16.9327C4.875 18.1435 5.85653 19.125 7.06731 19.125L16.9327 19.125C18.1435 19.125 19.125 18.1435 19.125 16.9327V8.16349C19.125 6.95271 18.1435 5.97118 16.9327 5.97118L7.06731 5.97116C5.85653 5.97116 4.875 6.95269 4.875 8.16347Z" stroke="currentColor" stroke-linecap="round" stroke-linejoin="round"/>
<g clip-path="url(#clip0_15185_3043)">
<path fill-rule="evenodd" clip-rule="evenodd" d="M11.6398 10.956C11.6764 10.8931 11.729 10.8408 11.7921 10.8045C11.8553 10.7682 11.9269 10.7491 11.9998 10.7491C12.0726 10.7491 12.1442 10.7682 12.2074 10.8045C12.2705 10.8408 12.3231 10.8931 12.3598 10.956L13.2914 12.5554L15.1008 12.9474C15.1719 12.9628 15.2378 12.9967 15.2918 13.0455C15.3458 13.0944 15.3861 13.1566 15.4086 13.2258C15.4311 13.2951 15.435 13.3691 15.42 13.4403C15.405 13.5116 15.3716 13.5777 15.3231 13.632L14.0898 15.0124L14.2764 16.854C14.2838 16.9265 14.272 16.9997 14.2422 17.0663C14.2125 17.1328 14.1658 17.1904 14.1068 17.2332C14.0478 17.2761 13.9786 17.3027 13.9062 17.3104C13.8337 17.3182 13.7604 17.3068 13.6938 17.2774L11.9998 16.5307L10.3058 17.2774C10.2391 17.3068 10.1658 17.3182 10.0933 17.3104C10.0209 17.3027 9.95168 17.2761 9.89271 17.2332C9.83374 17.1904 9.78704 17.1328 9.75727 17.0663C9.72751 16.9997 9.71572 16.9265 9.72308 16.854L9.90975 15.0124L8.67642 13.6324C8.62783 13.578 8.59434 13.5119 8.57929 13.4406C8.56424 13.3693 8.56816 13.2953 8.59067 13.2259C8.61317 13.1566 8.65346 13.0944 8.70752 13.0455C8.76158 12.9966 8.82752 12.9628 8.89875 12.9474L10.7081 12.5554L11.6398 10.956ZM11.9998 11.6624L11.2288 12.9864C11.1996 13.0363 11.1604 13.0797 11.1135 13.1137C11.0667 13.1476 11.0133 13.1715 10.9568 13.1837L9.45942 13.508L10.4801 14.6504C10.5581 14.7377 10.5958 14.8537 10.5841 14.97L10.4298 16.4944L11.8318 15.8764C11.8847 15.853 11.9419 15.841 11.9998 15.841C12.0576 15.841 12.1148 15.853 12.1678 15.8764L13.5698 16.4944L13.4154 14.97C13.4096 14.9125 13.4157 14.8543 13.4336 14.7993C13.4514 14.7442 13.4806 14.6935 13.5191 14.6504L14.5401 13.508L13.0428 13.1837C12.9862 13.1715 12.9328 13.1476 12.886 13.1137C12.8391 13.0797 12.7999 13.0363 12.7708 12.9864L11.9998 11.6624Z" fill="currentColor"/>
</g>
<defs>
<clipPath id="clip0_15185_3043">
<rect width="8" height="8" fill="white" transform="translate(8 10)"/>
</clipPath>
</defs>
</svg>
