<?xml version="1.0" encoding="UTF-8"?>
<svg id="Layer_1" data-name="Layer 1" xmlns="http://www.w3.org/2000/svg" xmlns:xlink="http://www.w3.org/1999/xlink"
  viewBox="0 0 967 958.07">
  <defs>
    <style>
      .cls-1,
      .cls-2,
      .cls-3,
      .cls-4,
      .cls-5,
      .cls-6,
      .cls-7,
      .cls-8,
      .cls-9,
      .cls-10,
      .cls-11,
      .cls-12,
      .cls-13,
      .cls-14,
      .cls-15,
      .cls-16,
      .cls-17,
      .cls-18,
      .cls-19,
      .cls-20,
      .cls-21,
      .cls-22,
      .cls-23,
      .cls-24,
      .cls-25,
      .cls-26,
      .cls-27,
      .cls-28,
      .cls-29 {
        stroke-width: 0px;
      }

      .cls-1,
      .cls-8,
      .cls-23 {
        fill: #e1e1e1;
      }

      .cls-1,
      .cls-30 {
        opacity: .35;
      }

      .cls-31 {
        clip-path: url(#clippath);
      }

      .cls-2,
      .cls-32 {
        fill: none;
      }

      .cls-3 {
        fill: url(#linear-gradient);
      }

      .cls-4 {
        fill: url(#radial-gradient);
      }

      .cls-5 {
        fill: url(#linear-gradient-11);
      }

      .cls-6 {
        fill: url(#linear-gradient-10);
      }

      .cls-7 {
        fill: url(#radial-gradient-2);
      }

      .cls-8 {
        opacity: .5;
      }

      .cls-32 {
        stroke: #fff;
        stroke-miterlimit: 10;
      }

      .cls-9 {
        fill: url(#linear-gradient-4);
      }

      .cls-10 {
        fill: url(#linear-gradient-2);
      }

      .cls-11 {
        fill: url(#linear-gradient-3);
      }

      .cls-12 {
        fill: url(#linear-gradient-8);
      }

      .cls-13 {
        fill: url(#linear-gradient-9);
      }

      .cls-14 {
        fill: url(#linear-gradient-7);
      }

      .cls-15 {
        fill: url(#linear-gradient-5);
      }

      .cls-16 {
        fill: url(#linear-gradient-6);
      }

      .cls-17 {
        opacity: .19;
      }

      .cls-18 {
        fill: #f7d04c;
      }

      .cls-19 {
        fill: #3976a9;
      }

      .cls-20 {
        fill: #084a77;
      }

      .cls-21 {
        fill: #231f20;
      }

      .cls-22 {
        fill: #cbcbcb;
      }

      .cls-24 {
        fill: #d4dbe8;
      }

      .cls-25 {
        fill: #f3866b;
      }

      .cls-26 {
        fill: #fff;
      }

      .cls-27 {
        fill: #e6f1ff;
      }

      .cls-28 {
        fill: #0174b9;
      }

      .cls-29 {
        fill: #01bdec;
      }
    </style>
    <clipPath id="clippath">
      <rect class="cls-2" x="305.66" y="145" width="421.68" height="631.02" />
    </clipPath>
    <linearGradient id="linear-gradient" x1="442.07" y1="351.8" x2="355.38" y2="201.65" gradientUnits="userSpaceOnUse">
      <stop offset="0" stop-color="#0174b9" />
      <stop offset="1" stop-color="#01bdec" />
    </linearGradient>
    <linearGradient id="linear-gradient-2" x1="12328.73" y1="351.8" x2="12242.04" y2="201.65"
      gradientTransform="translate(12914.15) rotate(-180) scale(1 -1)" xlink:href="#linear-gradient" />
    <linearGradient id="linear-gradient-3" x1="435.72" y1="863.17" x2="435.72" y2="914.43"
      xlink:href="#linear-gradient" />
    <linearGradient id="linear-gradient-4" x1="14057.39" y1="863.17" x2="14057.39" y2="914.43"
      gradientTransform="translate(14648.65) rotate(-180) scale(1 -1)" xlink:href="#linear-gradient" />
    <linearGradient id="linear-gradient-5" x1="7731.85" y1="-5099.28" x2="7696.9" y2="-5009.38"
      gradientTransform="translate(7197.25 -5659.77) rotate(103.39) scale(1 -1)" xlink:href="#linear-gradient" />
    <linearGradient id="linear-gradient-6" x1="7782.68" y1="-5312.86" x2="7747.73" y2="-5222.96"
      gradientTransform="translate(-6385.43 -5659.77) rotate(76.61)" xlink:href="#linear-gradient" />
    <linearGradient id="linear-gradient-7" x1="539.47" y1="642.39" x2="493.69" y2="563.11"
      xlink:href="#linear-gradient" />
    <radialGradient id="radial-gradient" cx="403.04" cy="511.56" fx="403.04" fy="511.56" r="36.48"
      gradientUnits="userSpaceOnUse">
      <stop offset="0" stop-color="#fad1c4" />
      <stop offset=".1" stop-color="#fad2c6" stop-opacity=".97" />
      <stop offset=".25" stop-color="#fad7cc" stop-opacity=".9" />
      <stop offset=".42" stop-color="#fbdfd6" stop-opacity=".78" />
      <stop offset=".6" stop-color="#fceae5" stop-opacity=".61" />
      <stop offset=".8" stop-color="#fef9f7" stop-opacity=".39" />
      <stop offset=".88" stop-color="#fff" stop-opacity=".3" />
    </radialGradient>
    <radialGradient id="radial-gradient-2" cx="623.77" fx="623.77" r="36.48" xlink:href="#radial-gradient" />
    <linearGradient id="linear-gradient-8" x1="98.76" y1="770.72" x2="811.92" y2="770.72"
      xlink:href="#linear-gradient" />
    <linearGradient id="linear-gradient-9" x1="341.8" y1="709.13" x2="341.8" y2="745.83" gradientUnits="userSpaceOnUse">
      <stop offset="0" stop-color="#bbbdbf" />
      <stop offset="1" stop-color="#f0f1f1" />
    </linearGradient>
    <linearGradient id="linear-gradient-10" x1="337.28" y1="523.06" x2="337.28" y2="715.1"
      xlink:href="#linear-gradient-9" />
    <linearGradient id="linear-gradient-11" x1="5977.29" y1="-11831.25" x2="5989.82" y2="-11809.54"
      gradientTransform="translate(6321.02 -11206.38) rotate(-180)" xlink:href="#linear-gradient" />
  </defs>
  <path class="cls-24"
    d="m435.46,957.73c-191.8-7.5-408.53-101.67-432.75-314.93-14.14-124.56,28.9-240.84,88.9-347.53,54.72-97.3,115.14-187.93,212.56-246.7C388.96-2.58,491.98-13.03,586.29,15.8c96.42,29.47,178.49,94.73,242.34,171.34,63.24,75.88,122.46,171.48,135.85,270.96,14.15,105.12-33.24,208.36-98.3,288.29-104.44,128.32-261.21,217.96-430.73,211.33Z" />
  <polygon class="cls-20" points="721.87 492.81 737.19 526.17 677.44 780.5 355.66 768 337.28 745.06 721.87 492.81" />
  <path class="cls-19"
    d="m337.28,745.06s44.43-233.49,68.94-254.33c24.51-20.85,303.4-4.17,315.65,2.08,12.26,6.25-59.75,262.67-59.75,262.67l-324.84-10.42Z" />
  <rect class="cls-2" x="239.36" y="145" width="531.95" height="625.72" />
  <g>
    <path class="cls-18"
      d="m771.32,392.58h-87.13c-7.58,0-12.31-8.2-8.52-14.76l43.57-75.46,43.57-75.46c3.79-6.56,13.26-6.56,17.05,0l43.57,75.46,43.57,75.46c3.79,6.56-.95,14.76-8.52,14.76h-87.13Z" />
    <path class="cls-26"
      d="m762.16,360.39c0-5.2,3.95-8.93,9.15-8.93s9.15,3.73,9.15,8.93-3.95,8.93-9.15,8.93-9.15-3.73-9.15-8.93Zm2.71-18.87l-1.13-54.69c0-.9.56-1.47,1.47-1.47h11.75c.9,0,1.47.57,1.47,1.47l-1.13,54.69c0,1.02-.56,1.47-1.47,1.47h-9.49c-.9,0-1.47-.45-1.47-1.47Z" />
  </g>
  <g class="cls-31">
    <g>
      <g>
        <path class="cls-26"
          d="m394.13,375.08s-60.35-66.09-59.6-146.65,72.66-93.74,94.87-41.04c22.21,52.71-22.96,72.42,12.05,152.61" />
        <path class="cls-8"
          d="m445.27,348.32c-13.6,6.5-26.93,12.84-40.52,19.34,5.01-4.91,14.14-15.16,19.58-31.06,5.45-15.96,5.64-30.56,4.67-37.52,1.06,5.85,2.48,12.13,4.37,18.74,3.35,11.75,7.8,21.86,11.91,30.49Z" />
        <path class="cls-3"
          d="m404.74,373.35s-47.88-80.62-47.47-136.32c.25-33.96,14.77-50.15,28.8-50.16,14.04,0,21.13,19.1,22.43,21.79,13.63,28.2-2.5,48.87,1.21,85.1,1.36,13.32,5.81,32.64,20.58,55.34" />
      </g>
      <g>
        <path class="cls-26"
          d="m633.36,375.08s60.35-66.09,59.6-146.65c-.75-80.56-72.66-93.74-94.87-41.04-22.21,52.71,22.96,72.42-12.05,152.61" />
        <path class="cls-8"
          d="m582.22,348.32c13.6,6.5,26.93,12.84,40.52,19.34-5.01-4.91-14.14-15.16-19.58-31.06-5.45-15.96-5.64-30.56-4.67-37.52-1.06,5.85-2.48,12.13-4.37,18.74-3.35,11.75-7.8,21.86-11.91,30.49Z" />
        <path class="cls-10"
          d="m622.74,373.35s47.88-80.62,47.47-136.32c-.25-33.96-14.77-50.15-28.8-50.16-14.04,0-21.13,19.1-22.43,21.79-13.63,28.2,2.5,48.87-1.21,85.1-1.36,13.32-5.81,32.64-20.58,55.34" />
      </g>
      <g>
        <g>
          <path class="cls-26"
            d="m626.7,898.32h-59.23c-7.62,0-14.1-5.55-15.28-13.08-2.3-14.77-4.61-29.54-6.91-44.31-.63-4-4.54-6.66-8.49-5.71-6.56,1.55-14.74,2.81-24.15,2.77-9-.04-16.85-1.27-23.2-2.77-3.96-.95-7.88,1.7-8.51,5.71l-6.91,44.31c-1.18,7.53-7.66,13.08-15.28,13.08h-59.22c-4.86,0-7.27-5.87-3.85-9.29,3.16-3.14,5.63-6.94,6.7-11.28l1.11-4.49c2.3-9.27,2.57-18.94.93-28.35-5.01-28.77-7.04-54.49-7.1-77.19.62-72.33,17.75-132.72,27.24-154.2,12.74-11.5,42.16-33.34,84.78-34.6,44.4-1.32,76.14,20.53,90.56,32.91,12.37,26.45,40.34,127.2,21.91,233.08-1.64,9.41-1.36,19.08.93,28.35l1.11,4.49c1.07,4.34,3.54,8.14,6.7,11.28,3.42,3.42,1.01,9.29-3.84,9.29Z" />
          <path class="cls-1"
            d="m628.71,792.93c-22.37,23.5-65.05,44.37-116.28,44.16-50.74-.2-91.47-21.59-113.77-45.01,21.76,10.01,61.76,24.99,113.86,25.39,53.26.4,94.23-14.63,116.19-24.54Z" />
          <path class="cls-28"
            d="m411.48,696.3c.69.47,1.36.96,2.04,1.45.72.52-1.01-.81-.32-.25.17.14.35.28.53.42.42.34.83.69,1.24,1.04,1.63,1.42,3.16,2.95,4.6,4.57.79.89,1.56,1.8,2.3,2.72.13.16.4.66.58.74l-.39-.5c.13.17.26.35.39.52.47.63.93,1.27,1.38,1.91,1.83,2.6,3.51,5.31,5.08,8.08,1.89,3.34,3.66,6.76,5.25,10.25.13.29.26.58.39.87.64,1.39-.34-.89.21.49.32.8.64,1.61.94,2.43.58,1.6,1.1,3.22,1.55,4.86.36,1.35.68,2.71.94,4.09.12.64.23,1.28.34,1.93.05.31.09.63.14.94.14.92-.15-1.23.03.2.3,2.42.53,4.85.68,7.28.18,2.81.21,5.63.07,8.45-.08,1.57-.21,3.14-.39,4.71-.02.2-.13,1.58-.04.32-.03.42-.13.84-.19,1.26-.16,1-.35,2.01-.56,3-.78,3.69-1.91,7.26-3.3,10.76-.5,1.26.44-.93-.12.28-.16.35-.32.71-.48,1.06-.31.68-.64,1.35-.98,2.01-.7,1.35-1.45,2.67-2.26,3.96-3.07,4.92-6.86,9.35-10.29,14.02s-6.67,9.6-8.95,15.06c-2.41,5.78-4.19,11.84-5.45,17.97-1.36,6.55-2.38,13.5-1.56,20.19.32,2.59,2.07,5.13,5,5,2.44-.11,5.34-2.22,5-5s-.33-5.42-.15-8.12c.05-.76.12-1.52.19-2.28.04-.36.08-.71.12-1.07.02-.18.04-.36.06-.54.08-.66.04-.04-.04.25.39-1.45.47-3.04.75-4.52,1.1-5.72,2.68-11.38,4.75-16.83.21-.55.42-1.09.64-1.63.05-.13.11-.26.16-.39.2-.51-.27.62-.24.56.13-.28.24-.57.37-.85.4-.89.82-1.78,1.28-2.64,1.57-2.91,3.49-5.66,5.4-8.35,3.46-4.86,7.37-9.4,10.67-14.38,7.75-11.7,11.12-26.01,10.64-39.95-.19-5.44-.74-10.99-1.86-16.31-1.54-7.31-4.65-14.17-8.11-20.75-5.26-10-11.8-19.53-20.88-26.4-.69-.52-1.4-1.03-2.12-1.51-2.18-1.46-5.63-.49-6.84,1.79-1.33,2.52-.53,5.28,1.79,6.84h0Z" />
          <path class="cls-28"
            d="m618.6,691.01c-9.14,3.33-17.5,8.24-23.99,15.61-9.28,10.55-14.46,24.05-16.02,37.9-.61,5.38-.9,10.78-.48,16.19.62,8.08,2.52,15.84,5.77,23.27,5.01,11.47,14.38,20.21,20.58,30.98,1.14,1.99,2.08,4.06,3.02,6.15.23.51-.2-.47-.19-.45.1.11.19.45.25.61.13.31.25.63.38.94.28.71.55,1.42.82,2.13.54,1.46,1.04,2.93,1.51,4.42,1.01,3.21,1.86,6.46,2.51,9.76.16.82.31,1.64.45,2.46.08.48.16.97.23,1.45.03.21.07.42.09.62-.04-.44-.08-.64-.02-.08.2,1.74.36,3.47.42,5.22s.06,3.45-.03,5.18c-.14,2.62,2.4,5.12,5,5,2.83-.13,4.85-2.2,5-5,.7-13.36-3.04-27.09-8.61-39.15-2.48-5.37-5.85-10.27-9.38-15s-7.03-8.84-9.96-13.67c-.74-1.21-1.43-2.45-2.07-3.71-.34-.67-.67-1.35-.98-2.03-.16-.35-.32-.71-.48-1.07.53,1.2-.23-.57-.3-.76-1.42-3.63-2.49-7.39-3.22-11.21-.15-.78-.28-1.55-.4-2.33-.04-.28-.19-1.24-.03-.12-.06-.41-.1-.82-.15-1.22-.19-1.68-.31-3.36-.38-5.05-.11-2.76-.05-5.53.14-8.28.08-1.15.19-2.3.3-3.45.06-.6.12-1.19.19-1.79.03-.3.07-.61.11-.91.18-1.44-.11.71.03-.22.41-2.73.94-5.43,1.69-8.1.43-1.54.93-3.07,1.48-4.58.3-.82.62-1.64.95-2.45-.41,1.01.18-.42.22-.5.26-.59.53-1.17.8-1.75,1.48-3.14,3.19-6.17,5.2-9.01.22-.31.44-.62.67-.92.15-.2.3-.4.45-.6-.41.52-.44.57-.1.14.53-.65,1.06-1.3,1.61-1.92.97-1.1,1.99-2.16,3.05-3.17.54-.51,1.1-1.02,1.66-1.51.52-.44,1.23-.86,1.67-1.37-.76.91-.45.34-.06.05.31-.23.63-.46.95-.69.54-.38,1.09-.76,1.65-1.12,2.01-1.3,4.11-2.45,6.28-3.46.48-.22.97-.43,1.45-.65.82-.37-1.22.5-.39.16.26-.11.52-.21.78-.32.84-.34,1.68-.65,2.53-.96,2.45-.89,4.37-3.44,3.49-6.15-.78-2.41-3.52-4.45-6.15-3.49h0Z" />
          <g>
            <path class="cls-11"
              d="m401.9,866.19c-.34,2.29-.79,4.57-1.35,6.82l-1.22,4.94c-1.18,4.77-3.89,8.93-7.37,12.41-3.76,3.75-1.11,10.21,4.23,10.21h65.14c8.38,0,15.51-6.1,16.8-14.38l3.12-19.98c-14.66-.7-30.03-1.04-46.04-.92-11.45.08-22.56.4-33.31.9Z" />
            <path class="cls-28"
              d="m481.11,867.22c-12.48-1.02-25.51-1.6-39.07-1.6-13.64,0-26.75.58-39.29,1.6-2.77,0-5.06-3.93-5.06-8.7s2.26-8.7,5.06-8.7c12.59-.95,25.7-1.48,39.29-1.48,13.52,0,26.55.53,39.07,1.48,2.77,0,5.06,3.93,5.06,8.7s-2.26,8.7-5.06,8.7Z" />
          </g>
          <g>
            <path class="cls-9"
              d="m625.08,866.19c.34,2.29.79,4.57,1.35,6.82l1.22,4.94c1.18,4.77,3.89,8.93,7.37,12.41,3.76,3.75,1.11,10.21-4.23,10.21h-65.14c-8.38,0-15.51-6.1-16.8-14.38l-3.12-19.98c14.66-.7,30.03-1.04,46.04-.92,11.45.08,22.56.4,33.31.9Z" />
            <path class="cls-28"
              d="m545.87,867.22c12.48-1.02,25.51-1.6,39.07-1.6,13.64,0,26.75.58,39.29,1.6,2.77,0,5.06-3.93,5.06-8.7,0-4.81-2.26-8.7-5.06-8.7-12.59-.95-25.7-1.48-39.29-1.48-13.52,0-26.55.53-39.07,1.48-2.77,0-5.06,3.93-5.06,8.7s2.26,8.7,5.06,8.7Z" />
          </g>
          <path class="cls-26"
            d="m441.51,719.06c-8.93,4.05-26.55,10.56-49.22,9.19-.16,0-.32-.02-.48-.03-23.26-1.52-39.61-23.63-34.52-46.37.62-2.77,1.36-5.56,2.25-8.37,20.82-66.13,101.1-85.25,108.09-86.81" />
          <g>
            <path class="cls-15"
              d="m457.3,715.99c9.31-1.7,19.24-1.16,28.7-1.22,16.48-.11,46.29-4.34,44.89-33.59-1.93-40.33-48.81-26.57-56.86-22.88l7.87-2.66c9.17-15.3-13.63-25.5-20.34-7.78-3.59,9.49-9.09,14.23-13.43,16.59.24,7.7,1,16.61,2.76,26.4,1.71,9.54,4.01,17.96,6.4,25.14Z" />
            <path class="cls-28"
              d="m459.08,716.03c-3.44-7.27-6.54-15.92-8.31-25.88-1.73-9.77-1.82-18.8-1.13-26.69-.47-2.6-4.81-4.03-9.63-3.16-4.85.87-8.4,3.7-7.93,6.32-.83,7.86-.85,16.98.91,26.88,1.78,9.98,4.99,18.57,8.52,25.69.47,2.6,4.81,4.03,9.63,3.16,4.85-.87,8.4-3.7,7.93-6.32Z" />
          </g>
          <path class="cls-26"
            d="m589.86,719.06c8.93,4.05,26.55,10.56,49.22,9.19.16,0,.32-.02.48-.03,23.26-1.52,39.61-23.63,34.52-46.37-.62-2.77-1.36-5.56-2.25-8.37-20.82-66.13-101.1-85.25-108.09-86.81" />
          <g>
            <path class="cls-16"
              d="m574.06,715.99c-9.31-1.7-19.24-1.16-28.7-1.22-16.48-.11-46.29-4.34-44.89-33.59,1.93-40.33,48.81-26.57,56.86-22.88l-7.87-2.66c-9.17-15.3,13.63-25.5,20.34-7.78,3.59,9.49,9.09,14.23,13.43,16.59-.24,7.7-1,16.61-2.76,26.4-1.71,9.54-4.01,17.96-6.4,25.14Z" />
            <path class="cls-28"
              d="m572.28,716.03c3.44-7.27,6.54-15.92,8.31-25.88,1.73-9.77,1.82-18.8,1.13-26.69.47-2.6,4.81-4.03,9.63-3.16,4.85.87,8.4,3.7,7.93,6.32.83,7.86.85,16.98-.91,26.88-1.78,9.98-4.99,18.57-8.52,25.69-.47,2.6-4.81,4.03-9.63,3.16-4.85-.87-8.4-3.7-7.93-6.32Z" />
          </g>
          <path class="cls-14"
            d="m431.73,599.23l28.62,24.76c14.89,13.11,34.05,20.34,53.89,20.34h0c20.55,0,40.34-7.76,55.42-21.72l26.84-24.86c-8.01-6.28-42.88-20.79-84.33-20.28-39.57.49-72.21,15.3-80.45,21.75Z" />
          <g class="cls-30">
            <path class="cls-23"
              d="m575.2,587.72l-5.53,5.12c-15.08,13.96-34.87,21.72-55.42,21.72s-39-7.23-53.89-20.34l-6.73-5.83c13.15-4.81,33.38-10.48,58.56-10.92,27.38-.48,49.32,5.4,63.02,10.25Z" />
          </g>
          <path class="cls-26"
            d="m677.88,479.17c0,76.79-73.49,111.24-164.15,111.24s-164.14-34.45-164.14-111.24c0-45.01,25.25-91.4,64.4-122.07,8.61-6.75,17.89-12.74,27.73-17.79,16.34-8.39,34.2-14.17,53.04-16.53-1.22-4.19-2.25-9.74-1.94-16.23.17-3.42.68-6.51,1.34-9.2.54-2.26,3.67-2.48,4.49-.3,1.14,3.02,2.67,6.34,4.71,9.78,2.92,4.91,6.16,8.81,9.11,11.83,1.45,1.47,3.98.48,4.03-1.58.05-1.89.34-4.03,1.08-6.3.29-.9.63-1.74.99-2.5.8-1.71,3.17-1.86,4.15-.24,1.24,2.04,2.74,4.21,4.55,6.41,3.01,3.67,6.19,6.57,9.15,8.84,79.92,11.99,141.46,85.61,141.46,155.88Z" />
          <path class="cls-32" d="m496.49,327.72c-.54-1.32-1.16-2.98-1.73-4.94" />
          <ellipse class="cls-4" cx="403.04" cy="511.56" rx="36.05" ry="27.42" />
          <ellipse class="cls-7" cx="623.77" cy="511.56" rx="36.05" ry="27.42" />
          <path class="cls-28"
            d="m555.22,327.6c-2.67,9.1-5.35,18.21-8.02,27.31-.95,3.25-1.89,6.5-2.86,9.75-.1.34-.21.68-.33,1.02-.1.28-.21.55-.3.83-.24.71.53-1.11.03-.06s-1.03,2.07-1.66,3.04c-.13.19-.25.38-.38.57-.05.07-.67,1.02-.22.32s-.18.22-.25.3c-.15.17-.29.35-.45.52-.76.85-1.59,1.62-2.44,2.36-.67.58.14-.07.21-.15-.18.2-.47.35-.69.5-.42.29-.84.57-1.28.84-.48.29-.98.57-1.49.83-.2.1-.41.2-.61.3-.21.1-.41.19-.62.28l.56-.24c-.25.27-1.27.47-1.61.58-.49.16-.99.29-1.49.42s-1.02.22-1.53.32c-.93.18.22,0,.29-.03-.31.15-.88.09-1.23.12-4.25.3-8.59.06-12.85.06-5.08,0-10.16,0-15.24,0-.87,0-1.75-.02-2.62-.1-.14-.01-1.19-.25-.38-.03s-.26-.06-.37-.08c-.45-.08-.91-.18-1.35-.3-.56-.14-1.11-.3-1.65-.48-.22-.07-.43-.15-.65-.23-.21-.08-.43-.16-.64-.25l.56.24c-.86-.07-2.13-1.05-2.86-1.5-.43-.27-.86-.55-1.27-.84-.1-.07-.89-.78-.31-.22s-.29-.26-.41-.36c-.81-.71-1.58-1.47-2.28-2.29-.15-.17-.29-.35-.44-.52-.59-.71.09.16.15.2-.42-.24-.89-1.29-1.15-1.71-.54-.88-.87-1.93-1.44-2.77.53.78.23.59.11.22-.1-.28-.2-.55-.3-.83s-.19-.58-.27-.87-.18-.61-.27-.91l-1.56-5.28c-2.97-10.07-5.94-20.13-8.91-30.2-.07-.23-.14-.47-.21-.7-.74-2.51-3.55-4.33-6.15-3.49s-4.29,3.46-3.49,6.15c2.76,9.35,5.52,18.7,8.28,28.04,1,3.4,1.87,6.89,3.06,10.24,3.66,10.31,12.68,17.41,23.51,18.68,4.54.53,9.27.17,13.83.17,5.18,0,10.37,0,15.55,0,9.31,0,17.72-4.35,23.19-11.86,2.93-4.02,4.13-8.79,5.5-13.47,3.04-10.35,6.08-20.7,9.12-31.06.07-.25.15-.49.22-.74.74-2.51-.89-5.56-3.49-6.15s-5.36.81-6.15,3.49h0Z" />
          <path class="cls-25"
            d="m526.05,487.81c0,4.54-5.38,10.36-12.02,10.36s-12.02-5.82-12.02-10.36,5.38-5.67,12.02-5.67,12.02,1.13,12.02,5.67Z" />
        </g>
        <ellipse class="cls-21" cx="514.57" cy="528.45" rx="12.71" ry="16.74" />
        <g>
          <path class="cls-21"
            d="m599.39,444.03c1.89-.12,3.76-.7,5.29-1.85.97-.73,1.75-1.52,2.45-2.52.43-.62.72-1.28,1.01-1.98.23-.56.04-1.43-.25-1.93-.3-.52-.9-1.01-1.49-1.15-.64-.15-1.36-.11-1.93.25l-.51.39c-.31.31-.52.68-.64,1.1l-.02.04.25-.6c-.24.58-.56,1.12-.94,1.62l.39-.51c-.39.51-.84.96-1.35,1.35l.51-.39c-.49.37-1.02.68-1.58.92l.6-.25c-.61.26-1.25.43-1.91.53l.66-.09c-.18.02-.36.04-.54.05-.67.04-1.29.25-1.77.73-.43.43-.76,1.15-.73,1.77s.24,1.32.73,1.77,1.11.77,1.77.73h0Z" />
          <path class="cls-21"
            d="m593.18,438.87c2.73-.17,5.41-1.06,7.6-2.71s3.73-3.73,4.78-6.23c.23-.56.04-1.43-.25-1.93-.3-.52-.9-1.01-1.49-1.15-.64-.15-1.36-.11-1.93.25s-.88.86-1.15,1.49c.44-1.06-.05.07-.18.33-.2.39-.43.77-.68,1.14-.07.11-.15.22-.23.32-.26.37.37-.45.05-.06-.18.21-.35.42-.54.62-.2.21-.41.42-.62.62-.12.11-.25.23-.38.33s-.42.48-.04.04c-.21.24-.59.42-.86.58s-.57.33-.87.48c-.07.03-.38.24-.46.22.32-.13.39-.16.22-.09-.07.03-.15.06-.22.09-.28.11-.57.2-.86.29-.45.13-.91.24-1.38.31-.21.04-.61.03.25-.03-.09,0-.19.02-.28.03-.15.02-.31.03-.46.04-1.3.08-2.56,1.09-2.5,2.5.06,1.28,1.1,2.59,2.5,2.5h0Z" />
          <path class="cls-21" d="m581.72,432.18c-23.97,2.8-32.43,45.33,0,51.29,32.43,5.96,30.49-54.85,0-51.29Z" />
          <path class="cls-26" d="m580.62,476.32c-.72,4.91,14.68,2.34,14.62-1.17-.06-3.51-14.16-2-14.62,1.17Z" />
          <path class="cls-26" d="m568.42,465.6c-3.03,2.76,1.79,9.36,6.97,5.57,5.18-3.78-2.59-9.55-6.97-5.57Z" />
          <path class="cls-26"
            d="m579.21,440.91c-6.78,6.17,4.01,20.92,15.58,12.46,11.57-8.46-5.79-21.37-15.58-12.46Z" />
        </g>
        <ellipse class="cls-29" cx="408.29" cy="428.35" rx="7.04" ry="5.35"
          transform="translate(-183.3 414.16) rotate(-45)" />
        <ellipse class="cls-29" cx="615.2" cy="428.35" rx="5.35" ry="7.04"
          transform="translate(-122.7 560.47) rotate(-45)" />
        <g>
          <path class="cls-21"
            d="m424.59,439.03c-.18-.01-.36-.03-.54-.05l.66.09c-.66-.09-1.3-.27-1.91-.53l.6.25c-.56-.25-1.09-.55-1.58-.92l.51.39c-.5-.39-.95-.84-1.35-1.35l.39.51c-.38-.5-.7-1.04-.94-1.62l.25.6-.02-.04c-.26-.63-.54-1.14-1.15-1.49-.54-.31-1.33-.45-1.93-.25s-1.19.57-1.49,1.15-.5,1.32-.25,1.93c.28.68.57,1.33.98,1.94.7,1.02,1.49,1.82,2.47,2.56,1.52,1.15,3.4,1.73,5.29,1.85.62.04,1.34-.31,1.77-.73s.76-1.15.73-1.77c-.06-1.43-1.1-2.41-2.5-2.5h0Z" />
          <path class="cls-21"
            d="m430.79,433.87c-.15,0-.31-.02-.46-.04-.05,0-.26,0-.28-.03,0,.01.76.12.3.04-.48-.09-.96-.18-1.43-.32-.29-.08-.58-.18-.86-.29-.11-.04-.45-.27-.15-.06.31.23-.14-.07-.24-.12-.3-.14-.58-.3-.87-.47-.13-.08-.86-.67-.94-.63l.23.18c-.09-.07-.18-.14-.27-.22-.11-.09-.21-.18-.32-.28-.22-.2-.43-.41-.63-.62s-.4-.45-.59-.68c-.33-.4.34.48.05.06-.08-.11-.15-.22-.23-.32-.24-.35-.46-.72-.66-1.09-.09-.17-.17-.33-.25-.5-.1-.22-.36-.83.04.13-.26-.63-.54-1.14-1.15-1.49-.54-.31-1.33-.45-1.93-.25s-1.19.57-1.49,1.15-.5,1.32-.25,1.93c1.04,2.5,2.6,4.59,4.78,6.23s4.87,2.54,7.6,2.71c1.31.08,2.56-1.21,2.5-2.5-.06-1.43-1.1-2.41-2.5-2.5h0Z" />
          <path class="cls-21" d="m442.26,432.18c23.97,2.8,32.43,45.33,0,51.29-32.43,5.96-30.49-54.85,0-51.29Z" />
          <path class="cls-26" d="m443.36,476.32c.72,4.91-14.68,2.34-14.62-1.17.06-3.51,14.16-2,14.62,1.17Z" />
          <path class="cls-26" d="m455.56,465.6c3.03,2.76-1.79,9.36-6.97,5.57-5.18-3.78,2.59-9.55,6.97-5.57Z" />
          <path class="cls-26" d="m444.77,440.91c6.78,6.17-4.01,20.92-15.58,12.46-11.57-8.46,5.79-21.37,15.58-12.46Z" />
        </g>
      </g>
    </g>
  </g>
  <rect class="cls-12" x="98.76" y="756.03" width="713.16" height="29.38" rx="14.21" ry="14.21" />
  <g>
    <g>
      <path class="cls-22" d="m289.25,748.06h105.09c4.4,0,7.97,3.57,7.97,7.97h-121.03c0-4.4,3.57-7.97,7.97-7.97Z" />
      <path class="cls-13" d="m378.81,715.6h-74.02s5.5,21.84-7.64,32.46h89.3c-13.14-10.62-7.64-32.46-7.64-32.46Z" />
      <path class="cls-27"
        d="m518.07,536.76v175.58c0,3.84-3.55,6.95-7.91,6.95H177.05c-4.36,0-7.91-3.11-7.91-6.95v-175.58c0-3.82,3.55-6.93,7.91-6.93h333.11c4.36,0,7.91,3.11,7.91,6.93Z" />
      <path class="cls-6"
        d="m511.74,536.76v175.58c0,3.84-3.55,6.95-7.91,6.95H170.73c-4.36,0-7.91-3.11-7.91-6.95v-175.58c0-3.82,3.55-6.93,7.91-6.93h333.11c4.36,0,7.91,3.11,7.91,6.93Z" />
      <rect class="cls-17" x="297.82" y="668.81" width="3.62" height="27.34" rx="1.81" ry="1.81" />
      <rect class="cls-17" x="311.88" y="668.81" width="3.62" height="27.34" rx="1.81" ry="1.81" />
      <rect class="cls-17" x="325.93" y="668.81" width="3.62" height="27.34" rx="1.81" ry="1.81" />
      <rect class="cls-17" x="339.99" y="668.81" width="3.62" height="27.34" rx="1.81" ry="1.81" />
      <rect class="cls-17" x="354.04" y="668.81" width="3.62" height="27.34" rx="1.81" ry="1.81" />
      <rect class="cls-17" x="368.1" y="668.81" width="3.62" height="27.34" rx="1.81" ry="1.81" />
      <rect class="cls-17" x="382.15" y="668.81" width="3.62" height="27.34" rx="1.81" ry="1.81" />
    </g>
    <g>
      <g>
        <g>
          <path class="cls-28"
            d="m313.39,617.27c0-1.05.24-2.04.66-2.93h0s.51-.89.51-.89l1.55-2.68,7.82-13.54,1.61-2.79.39-.67c1.21-1.84,3.3-3.06,5.67-3.06s4.59,1.3,5.78,3.24l.02.04c.64,1.04,1.54,1.89,2.62,2.45.94.5,2.02.78,3.16.78,2.4,0,4.51-1.24,5.71-3.12,0,0,0,0,0-.01.05-.08.1-.16.14-.24,0,0,0,0,0-.01,1.2-1.88,3.31-3.12,5.71-3.12,3.74,0,6.78,3.04,6.78,6.78,0,1.11-.27,2.16-.74,3.09h0s-.34.59-.34.59l-2.19,3.79c-1.02-.62-2.23-.98-3.51-.98-2.4,0-4.51,1.25-5.71,3.12,0,0,0,0,0,.01-.05.08-.09.16-.14.24,0,0,0,0,0,.01-1.2,1.88-3.31,3.12-5.71,3.12-1.14,0-2.21-.28-3.16-.78-1.08-.57-1.99-1.42-2.62-2.45l-.02-.04c-1.19-1.94-3.34-3.24-5.78-3.24s-4.46,1.22-5.67,3.06l-.39.67-1.61,2.79-7.26,12.58c-.98-.6-1.81-1.43-2.38-2.43-.57-.99-.9-2.15-.9-3.37Z" />
          <path class="cls-29"
            d="m313.39,630.54c0-1.05.24-2.04.66-2.93h0s.51-.89.51-.89l1.55-2.68.55-.96c1.02.62,2.22.97,3.5.97,2.39,0,4.49-1.24,5.7-3.1,0,0,0-.01.01-.02.05-.09.1-.17.16-.26,0-.01.02-.03.03-.04,1.21-1.85,3.3-3.08,5.68-3.08s4.57,1.29,5.77,3.22l-.02-.04s.03.05.04.07c0,0,0,.01.01.02,1.19,1.95,3.34,3.25,5.79,3.25s4.71-1.37,5.88-3.4l5.7-9.87,3.36-5.82c1.96,1.19,3.27,3.34,3.27,5.8,0,1.11-.27,2.16-.74,3.09h0s-.34.59-.34.59l-5.54,9.6-5.7,9.87c-1.17,2.03-3.36,3.4-5.88,3.4s-4.59-1.3-5.79-3.25c0,0,0-.01-.01-.02-.01-.02-.03-.05-.04-.07l.02.04c-1.19-1.93-3.33-3.22-5.77-3.22s-4.47,1.23-5.68,3.08c0,.01-.02.03-.03.04-.05.09-.11.17-.16.26,0,0,0,.01-.01.02-1.21,1.87-3.31,3.1-5.7,3.1-2.52,0-4.71-1.37-5.88-3.4-.57-.99-.9-2.15-.9-3.37Z" />
          <path class="cls-5"
            d="m316.66,623.08l7.26-12.58,1.61-2.79.39-.67c1.21-1.84,3.3-3.06,5.67-3.06s4.59,1.3,5.78,3.24l.02.04c.64,1.04,1.54,1.89,2.62,2.45.94.5,2.02.78,3.16.78,2.4,0,4.51-1.24,5.71-3.12,0,0,0,0,0-.01.05-.08.1-.16.14-.24,0,0,0,0,0-.01,1.2-1.88,3.31-3.12,5.71-3.12,1.28,0,2.49.36,3.51.98l-3.36,5.82-5.7,9.87c-1.17,2.03-3.36,3.4-5.88,3.4s-4.59-1.3-5.79-3.25c0,0,0-.01-.01-.02-.01-.02-.03-.05-.04-.07l.02.04c-1.19-1.93-3.33-3.22-5.77-3.22s-4.47,1.23-5.68,3.08c0,.01-.02.03-.03.04-.05.09-.11.17-.16.26,0,0,0,.01-.01.02-1.21,1.87-3.31,3.1-5.7,3.1-1.28,0-2.48-.35-3.5-.97Z" />
        </g>
        <circle class="cls-29" cx="373.66" cy="630.54" r="6.78" />
      </g>
      <path class="cls-2"
        d="m388.36,637.25h0v-54.51h-82.94l.14,62.35v.07h82.8v-7.77h0v-.14Zm-74.9,0v-46.46h66.91v46.46h-66.91Zm66.91.14v7.63h-66.91v-7.63h66.91Zm-74.81-46.6h7.76v46.46h-7.65l-.1-46.46Zm74.94,0h7.7v46.46h-7.7v-46.46Zm-74.96-7.92h82.67v7.78h-7.7v-7.77h-.14v7.77h-66.91v-7.71h-.14v7.71h-7.76l-.02-7.78Zm.12,54.51h7.65v7.63h-7.63l-.02-7.63Zm82.54,7.63h-7.7v-7.63h7.7v7.63Z" />
    </g>
  </g>
</svg>