<svg width="180" height="180" viewBox="0 0 180 180" fill="none" xmlns="http://www.w3.org/2000/svg">
<g id="Layer_1" clip-path="url(#clip0_13019_10958)">
<path id="Vector" d="M81.0585 179.936C45.3564 178.527 5.01365 160.835 0.505277 120.768C-2.12678 97.3659 5.8848 75.5194 17.0534 55.4748C27.2391 37.1943 38.4858 20.1669 56.6199 9.12533C72.4029 -0.484614 91.5793 -2.44794 109.134 2.96858C127.082 8.50533 142.359 20.7662 154.244 35.1595C166.016 49.4157 177.039 67.3768 179.532 86.0669C182.166 105.817 173.344 125.213 161.234 140.23C141.793 164.339 112.612 181.18 81.0567 179.934L81.0585 179.936Z" fill="#D1DAE8"/>
<g id="Group">
<path id="Vector_2" d="M135.007 92.5859L137.858 98.8535L126.736 146.636L66.8393 144.288L63.418 139.978L135.007 92.5859Z" fill="#004B7B"/>
<path id="Vector_3" d="M63.418 139.982C63.418 139.982 71.6883 96.114 76.2506 92.1987C80.813 88.2814 132.726 91.4152 135.007 92.5894C137.289 93.7637 123.885 141.939 123.885 141.939L63.418 139.982Z" fill="#1878AD"/>
<g id="Clip path group">
<mask id="mask0_13019_10958" style="mask-type:luminance" maskUnits="userSpaceOnUse" x="46" y="29" width="95" height="117">
<g id="clippath">
<path id="Vector_4" d="M140.553 29.1875H46.7891V145.799H140.553V29.1875Z" fill="white"/>
</g>
</mask>
<g mask="url(#mask0_13019_10958)">
<g id="Group_2">
<g id="Group_3">
<g id="Group_4">
<path id="Vector_5" d="M118.11 165.449H107.084C105.666 165.449 104.46 164.406 104.24 162.991C103.812 160.216 103.382 157.441 102.954 154.666C102.837 153.915 102.109 153.415 101.374 153.593C100.152 153.885 98.6298 154.121 96.8782 154.114C95.2029 154.106 93.7417 153.875 92.5597 153.593C91.8225 153.415 91.0929 153.913 90.9756 154.666L89.6893 162.991C89.4697 164.406 88.2635 165.449 86.8451 165.449H75.8217C74.9171 165.449 74.4685 164.346 75.1051 163.703C75.6933 163.113 76.153 162.399 76.3522 161.584L76.5588 160.74C76.987 158.999 77.0372 157.182 76.7319 155.414C75.7994 150.009 75.4215 145.177 75.4103 140.912C75.5257 127.323 78.7144 115.977 80.4809 111.941C82.8523 109.78 88.3286 105.677 96.262 105.44C104.527 105.192 110.435 109.298 113.119 111.623C115.422 116.593 120.628 135.522 117.198 155.414C116.892 157.182 116.944 158.999 117.371 160.74L117.577 161.584C117.776 162.399 118.236 163.113 118.824 163.703C119.461 164.346 119.012 165.449 118.11 165.449Z" fill="white"/>
<path id="Vector_6" opacity="0.35" d="M118.482 145.652C114.318 150.067 106.374 153.988 96.8376 153.949C87.3927 153.911 79.8111 149.892 75.6602 145.492C79.7106 147.373 87.1563 150.187 96.8544 150.262C106.768 150.338 114.395 147.514 118.482 145.652Z" fill="#E0E0E0"/>
<path id="Vector_7" d="M78.0468 127.5C78.1753 127.588 78.3 127.68 78.4266 127.772C78.5606 127.87 78.2386 127.62 78.367 127.725C78.3986 127.751 78.4322 127.778 78.4657 127.804C78.5438 127.868 78.6202 127.934 78.6965 127.999C78.9999 128.266 79.2847 128.554 79.5527 128.858C79.6998 129.025 79.8431 129.196 79.9809 129.369C80.0051 129.399 80.0553 129.493 80.0888 129.508L80.0162 129.414C80.0404 129.446 80.0646 129.48 80.0888 129.512C80.1763 129.63 80.2619 129.75 80.3457 129.871C80.6863 130.359 80.9991 130.868 81.2913 131.389C81.6431 132.016 81.9726 132.659 82.2686 133.314C82.2928 133.369 82.317 133.423 82.3412 133.478C82.4603 133.739 82.2779 133.311 82.3802 133.57C82.4398 133.72 82.4994 133.872 82.5552 134.026C82.6632 134.327 82.76 134.631 82.8437 134.939C82.9107 135.193 82.9703 135.449 83.0187 135.708C83.041 135.828 83.0615 135.948 83.082 136.07C83.0913 136.129 83.0988 136.189 83.1081 136.247C83.1341 136.42 83.0801 136.016 83.1136 136.285C83.1695 136.739 83.2123 137.196 83.2402 137.652C83.2737 138.18 83.2793 138.71 83.2533 139.24C83.2384 139.535 83.2142 139.83 83.1807 140.125C83.1769 140.162 83.1565 140.422 83.1732 140.185C83.1676 140.264 83.149 140.343 83.1378 140.422C83.1081 140.61 83.0727 140.799 83.0336 140.985C82.8884 141.679 82.6781 142.349 82.4193 143.007C82.3263 143.244 82.5012 142.832 82.397 143.06C82.3672 143.125 82.3374 143.193 82.3076 143.259C82.2499 143.386 82.1885 143.512 82.1252 143.636C81.9949 143.89 81.8553 144.138 81.7045 144.38C81.1331 145.305 80.4276 146.137 79.7891 147.014C79.1507 147.892 78.5476 148.818 78.1232 149.844C77.6746 150.93 77.3432 152.068 77.1087 153.22C76.8555 154.451 76.6657 155.756 76.8183 157.013C76.8779 157.5 77.2036 157.977 77.749 157.953C78.2032 157.932 78.743 157.536 78.6797 157.013C78.6164 156.491 78.6183 155.995 78.6518 155.488C78.6611 155.345 78.6741 155.202 78.6872 155.059C78.6946 154.992 78.7021 154.926 78.7095 154.858C78.7132 154.824 78.717 154.791 78.7207 154.757C78.7356 154.633 78.7281 154.749 78.7132 154.804C78.7858 154.531 78.8007 154.233 78.8528 153.955C79.0576 152.88 79.3517 151.817 79.737 150.793C79.7761 150.689 79.8152 150.588 79.8561 150.486C79.8655 150.462 79.8766 150.437 79.8859 150.413C79.9232 150.317 79.8357 150.53 79.8413 150.518C79.8655 150.466 79.8859 150.411 79.9101 150.359C79.9846 150.191 80.0628 150.024 80.1484 149.863C80.4406 149.316 80.798 148.799 81.1536 148.294C81.7976 147.381 82.5254 146.528 83.1397 145.592C84.5823 143.394 85.2096 140.705 85.1203 138.086C85.0849 137.064 84.9825 136.022 84.774 135.022C84.4874 133.649 83.9085 132.36 83.2644 131.124C82.2853 129.245 81.0679 127.454 79.3778 126.164C79.2493 126.066 79.1172 125.97 78.9831 125.88C78.5773 125.606 77.9352 125.788 77.7099 126.216C77.4624 126.69 77.6113 127.208 78.0431 127.501L78.0468 127.5Z" fill="#0076BE"/>
<path id="Vector_8" d="M116.601 126.503C114.9 127.128 113.344 128.051 112.136 129.436C110.408 131.418 109.444 133.954 109.154 136.556C109.04 137.567 108.986 138.581 109.064 139.598C109.18 141.116 109.533 142.574 110.138 143.97C111.071 146.125 112.815 147.767 113.969 149.79C114.181 150.164 114.356 150.553 114.531 150.946C114.574 151.041 114.494 150.857 114.496 150.861C114.514 150.882 114.531 150.946 114.542 150.976C114.567 151.034 114.589 151.094 114.613 151.152C114.665 151.286 114.715 151.419 114.766 151.552C114.866 151.827 114.959 152.103 115.047 152.383C115.235 152.986 115.393 153.597 115.514 154.217C115.544 154.371 115.572 154.525 115.598 154.679C115.613 154.769 115.628 154.861 115.641 154.951C115.646 154.991 115.654 155.03 115.657 155.068C115.65 154.985 115.642 154.947 115.654 155.053C115.691 155.38 115.721 155.705 115.732 156.033C115.743 156.362 115.743 156.682 115.726 157.007C115.7 157.499 116.173 157.968 116.657 157.946C117.184 157.922 117.56 157.533 117.588 157.007C117.718 154.497 117.022 151.917 115.985 149.651C115.523 148.642 114.896 147.722 114.239 146.833C113.582 145.944 112.93 145.172 112.385 144.265C112.247 144.037 112.119 143.804 112 143.568C111.936 143.442 111.875 143.314 111.817 143.186C111.787 143.121 111.758 143.053 111.728 142.985C111.827 143.211 111.685 142.878 111.672 142.842C111.408 142.16 111.209 141.454 111.073 140.736C111.045 140.59 111.021 140.445 110.998 140.299C110.991 140.246 110.963 140.066 110.993 140.276C110.981 140.199 110.974 140.122 110.965 140.047C110.929 139.731 110.907 139.416 110.894 139.098C110.873 138.58 110.885 138.059 110.92 137.542C110.935 137.326 110.955 137.11 110.976 136.894C110.987 136.782 110.998 136.671 111.011 136.558C111.017 136.502 111.024 136.443 111.032 136.387C111.065 136.116 111.011 136.52 111.037 136.346C111.114 135.833 111.212 135.325 111.352 134.824C111.432 134.535 111.525 134.247 111.627 133.963C111.683 133.809 111.743 133.655 111.804 133.503C111.728 133.693 111.838 133.424 111.845 133.409C111.894 133.298 111.944 133.189 111.994 133.08C112.27 132.49 112.588 131.921 112.962 131.388C113.003 131.329 113.044 131.271 113.087 131.215C113.115 131.177 113.143 131.14 113.17 131.102C113.094 131.2 113.089 131.209 113.152 131.128C113.251 131.006 113.349 130.884 113.452 130.768C113.632 130.561 113.822 130.362 114.019 130.172C114.12 130.076 114.224 129.98 114.328 129.888C114.425 129.806 114.557 129.727 114.639 129.631C114.498 129.802 114.555 129.695 114.628 129.64C114.686 129.597 114.745 129.554 114.805 129.511C114.905 129.439 115.008 129.368 115.112 129.3C115.486 129.056 115.877 128.84 116.281 128.65C116.37 128.609 116.461 128.569 116.551 128.528C116.703 128.459 116.324 128.622 116.478 128.558C116.527 128.537 116.575 128.519 116.623 128.498C116.78 128.434 116.936 128.376 117.094 128.318C117.55 128.15 117.908 127.671 117.744 127.162C117.599 126.709 117.089 126.326 116.599 126.506L116.601 126.503Z" fill="#0076BE"/>
<path id="Vector_9" d="M83.6395 131.772C81.9773 132.532 78.6974 133.756 74.4776 133.498C74.4478 133.498 74.418 133.494 74.3882 133.493C70.0585 133.207 67.0151 129.053 67.9626 124.781C68.078 124.26 68.2157 123.736 68.3814 123.208C72.2569 110.784 87.2004 107.192 88.5016 106.898" fill="white"/>
<path id="Vector_10" d="M110.635 131.772C112.298 132.532 115.578 133.756 119.797 133.498C119.827 133.498 119.857 133.494 119.887 133.493C124.216 133.207 127.26 129.053 126.312 124.781C126.197 124.26 126.059 123.736 125.894 123.208C122.018 110.784 107.075 107.192 105.773 106.898" fill="white"/>
<g id="Group_5">
<path id="Vector_11" d="M86.578 131.191C88.311 130.872 90.1594 130.973 91.9203 130.962C94.9879 130.942 100.537 130.147 100.276 124.651C99.917 117.074 91.1906 119.659 89.6922 120.353L91.1571 119.853C92.8641 116.978 88.62 115.062 87.371 118.391C86.7027 120.174 85.679 121.065 84.8711 121.508C84.9158 122.955 85.0572 124.629 85.3848 126.468C85.7032 128.26 86.1313 129.842 86.5762 131.191H86.578Z" fill="url(#paint0_linear_13019_10958)"/>
<path id="Vector_12" d="M86.9087 131.198C86.2683 129.832 85.6913 128.207 85.3618 126.336C85.0398 124.5 85.023 122.804 85.1515 121.321C85.064 120.833 84.2561 120.564 83.3589 120.728C82.4561 120.891 81.7953 121.423 81.8828 121.915C81.7283 123.392 81.7246 125.105 82.0522 126.965C82.3835 128.84 82.981 130.454 83.6381 131.792C83.7256 132.28 84.5335 132.549 85.4307 132.385C86.3335 132.222 86.9943 131.69 86.9068 131.198H86.9087Z" fill="#0076BE"/>
</g>
<path id="Vector_13" d="M81.873 109.255L87.2004 113.907C89.972 116.37 93.5385 117.728 97.2316 117.728C101.057 117.728 104.741 116.27 107.548 113.647L112.544 108.977C111.053 107.797 104.562 105.071 96.8463 105.167C89.4806 105.259 83.4049 108.041 81.8711 109.253L81.873 109.255Z" fill="url(#paint1_linear_13019_10958)"/>
<g id="Group_6" opacity="0.35">
<path id="Vector_14" d="M108.524 107.095L107.495 108.057C104.687 110.68 101.004 112.138 97.1785 112.138C93.3533 112.138 89.9189 110.779 87.1473 108.316L85.8945 107.221C88.3423 106.317 92.108 105.252 96.795 105.169C101.892 105.079 105.976 106.184 108.526 107.095H108.524Z" fill="#E0E0E0"/>
</g>
<g id="Group_7">
<path id="Vector_15" d="M121.927 71.9702C121.927 71.9702 135.115 61.6971 137.567 46.7646C140.018 31.8321 127.258 27.06 121.491 36.0931C115.725 45.1263 123.375 50.2403 114.379 63.9441" fill="white"/>
<path id="Vector_16" opacity="0.5" d="M113.41 65.3635C115.694 67.0074 117.935 68.6119 120.219 70.2577C119.458 69.1868 118.114 66.9924 117.628 63.8755C117.14 60.7455 117.576 58.0363 117.978 56.7812C117.595 57.8296 117.133 58.9456 116.575 60.1067C115.582 62.1715 114.441 63.8999 113.41 65.3635Z" fill="#E0E0E0"/>
<path id="Vector_17" d="M120.034 71.307C120.034 71.307 131.402 57.9413 133.118 47.6193C134.164 41.3254 132.022 37.8591 129.449 37.4025C126.877 36.946 124.961 40.2508 124.637 40.7073C121.233 45.4832 123.526 49.8325 121.682 56.4158C121.004 58.8375 119.567 62.2682 116.129 65.99" fill="url(#paint2_linear_13019_10958)"/>
</g>
<path id="Vector_18" d="M87.9042 59.4126L85.2349 47.5312L74.4609 55.0182L77.052 65.2763L87.9042 59.4126Z" fill="white"/>
<path id="Vector_19" d="M85.529 60.5755L80.0657 64.2353C80.0657 64.2353 79.591 62.969 78.9414 60.9155C79.4272 59.0875 79.7288 57.2407 80.7879 54.6912C81.3426 53.3572 82.0277 51.5029 83.5522 49.4531C83.5484 49.5226 83.541 49.5922 83.5373 49.6635C83.3865 51.7584 83.4982 54.6949 84.6914 58.3285C84.8756 58.894 85.0878 59.4783 85.3298 60.0776C85.3931 60.2411 85.462 60.4064 85.5309 60.5717L85.529 60.5755Z" fill="url(#paint3_linear_13019_10958)"/>
<path id="Vector_20" d="M126.666 92.7132C124.197 106.924 109.617 110.915 92.9943 107.974C76.3736 105.034 64.0063 96.2753 66.4745 82.0643C67.9209 73.7356 74.0412 65.9688 82.2054 61.5631C84.0017 60.5936 85.8948 59.7857 87.8605 59.1695C91.1254 58.1474 94.5858 57.6571 98.1169 57.8299C98.0276 57.0145 98.0183 55.9549 98.2826 54.7638C98.4241 54.1362 98.6158 53.582 98.8243 53.1048C98.9955 52.7046 99.5763 52.7647 99.6563 53.195C99.768 53.7905 99.943 54.4556 100.205 55.1583C100.583 56.1616 101.052 56.9882 101.495 57.6439C101.713 57.9633 102.21 57.8619 102.285 57.4823C102.355 57.1348 102.476 56.7477 102.685 56.3513C102.767 56.1935 102.856 56.0507 102.947 55.9211C103.148 55.6299 103.588 55.6806 103.716 56.0113C103.878 56.4284 104.083 56.8793 104.345 57.3452C104.779 58.1211 105.269 58.7618 105.739 59.2785C120.007 64.09 128.925 79.7102 126.666 92.7132Z" fill="white"/>
<path id="Vector_21" d="M98.2774 58.7976C98.2215 58.5364 98.1601 58.2076 98.1191 57.8281" stroke="white" stroke-miterlimit="10"/>
<path id="Vector_22" d="M81.8427 90.9593C82.3292 88.1569 79.7644 85.3616 76.114 84.7159C72.4635 84.0702 69.1098 85.8186 68.6232 88.621C68.1366 91.4235 70.7015 94.2188 74.3519 94.8644C78.0023 95.5101 81.3561 93.7617 81.8427 90.9593Z" fill="url(#paint4_radial_13019_10958)"/>
<path id="Vector_23" d="M122.311 98.1155C122.798 95.3131 120.233 92.5178 116.583 91.8721C112.932 91.2264 109.579 92.9748 109.092 95.7773C108.605 98.5797 111.17 101.375 114.821 102.021C118.471 102.666 121.825 100.918 122.311 98.1155Z" fill="url(#paint5_radial_13019_10958)"/>
<path id="Vector_24" d="M109.084 60.6135C108.308 62.1992 107.531 63.7849 106.755 65.3687C106.47 65.9511 106.189 66.5354 105.899 67.116C105.832 67.2512 105.757 67.3846 105.677 67.5143C105.629 67.5932 105.575 67.7096 105.504 67.7698C105.549 67.7115 105.653 67.6458 105.504 67.7698C105.462 67.8224 105.417 67.8731 105.372 67.9238C105.253 68.0553 105.076 68.2958 104.909 68.3635C104.927 68.3559 105.078 68.2395 104.938 68.339C104.903 68.3653 104.866 68.3916 104.83 68.4161C104.721 68.4912 104.607 68.5626 104.492 68.6284C104.414 68.6716 104.335 68.7129 104.255 68.7505C104.242 68.7561 104.043 68.8444 104.185 68.7843C104.326 68.7242 104.123 68.8069 104.11 68.8106C103.902 68.8876 103.688 68.9496 103.47 68.9929C103.425 69.0022 103.382 69.0098 103.338 69.0173C103.163 69.0492 103.369 69.0192 103.386 69.0116C103.31 69.0492 103.135 69.0342 103.049 69.0379C102.829 69.0455 102.582 69.0567 102.366 69.0079C102.493 69.0361 102.466 69.021 102.381 69.006C102.34 68.9985 102.297 68.991 102.256 68.9835L101.783 68.9008L100.253 68.6302C99.3467 68.4705 98.4383 68.3109 97.5318 68.1493C97.3345 68.1136 97.1409 68.0723 96.9492 68.0121C96.8673 67.9858 96.7835 67.9576 96.7035 67.9276C96.6849 67.9201 96.4987 67.8318 96.6346 67.9013C96.7705 67.9708 96.5844 67.875 96.5695 67.8693C96.3777 67.7754 96.1935 67.6683 96.0185 67.5481C95.9831 67.5237 95.9496 67.4992 95.9143 67.4748C95.7411 67.3527 96.0297 67.5763 95.9273 67.4861C95.8566 67.4241 95.7821 67.364 95.7132 67.2982C95.6443 67.2324 95.5773 67.1648 95.5122 67.0953C95.4526 67.0314 95.313 66.9149 95.2851 66.8304C95.3279 66.9544 95.367 66.9431 95.3149 66.868C95.2851 66.8247 95.2534 66.7815 95.2237 66.7364C95.1697 66.6575 95.1194 66.5749 95.0729 66.4922C95.0189 66.4001 94.9705 66.3043 94.924 66.2085C94.9072 66.1747 94.8923 66.1183 94.87 66.092C94.9165 66.2085 94.9277 66.2329 94.9016 66.1672C94.8886 66.1371 94.8774 66.107 94.8663 66.077C94.7974 65.8929 94.7415 65.705 94.6987 65.5134C94.6783 65.4232 94.628 65.2785 94.6392 65.1865C94.6429 65.1601 94.6559 65.348 94.6541 65.2973C94.6541 65.2334 94.6392 65.1695 94.6317 65.1057L94.5145 64.0592C94.2948 62.1128 94.0752 60.1645 93.8555 58.2181L93.8406 58.0809C93.7848 57.5943 93.4516 57.1171 92.9099 57.1415C92.452 57.1622 91.9196 57.5586 91.9792 58.0809C92.184 59.8864 92.3868 61.6919 92.5916 63.4993C92.6716 64.2057 92.7387 64.914 92.8373 65.6186C93.1072 67.5706 94.5517 69.2033 96.3926 69.8026C96.7258 69.9116 97.0683 69.9642 97.4127 70.0243L98.8944 70.2873L101.794 70.8002C102.519 70.928 103.207 70.9505 103.933 70.8115C104.901 70.6255 105.823 70.1145 106.524 69.4212C107.226 68.7279 107.567 67.9426 107.974 67.1122L110.633 61.6844L110.694 61.5604C110.91 61.1208 110.826 60.5233 110.361 60.2753C109.94 60.0517 109.318 60.1419 109.088 60.6116L109.084 60.6135Z" fill="#0076BE"/>
<g id="Group_8">
<path id="Vector_25" d="M81.7957 77.823C81.7231 77.8061 81.6524 77.7817 81.5835 77.7535L81.6952 77.8005C81.5835 77.7516 81.4793 77.6915 81.3825 77.6164L81.4774 77.6896C81.3899 77.6201 81.3117 77.5412 81.2429 77.4529L81.3155 77.5487C81.241 77.4529 81.1814 77.3477 81.133 77.235L81.1796 77.3477C81.1479 77.2707 81.1237 77.1936 81.1051 77.1129C81.0511 76.8724 80.7645 76.7089 80.5318 76.7841C80.2824 76.8649 80.1502 77.1053 80.206 77.3627C80.3531 78.0241 80.8948 78.5727 81.5463 78.7305C81.6654 78.7587 81.7976 78.7474 81.9055 78.6835C82.0023 78.6271 82.0935 78.5144 82.1196 78.4036C82.1475 78.2833 82.1401 78.1481 82.0731 78.041C82.0079 77.9395 81.913 77.8531 81.7957 77.8249V77.823Z" fill="#241F20"/>
<path id="Vector_26" d="M83.099 77.0727C83.0376 77.0576 82.978 77.0407 82.9185 77.0201C82.8812 77.0069 82.8459 76.9938 82.8086 76.9806C82.7174 76.9468 82.9129 77.0276 82.8366 76.9938C82.818 76.9844 82.7975 76.9769 82.7789 76.9675C82.6821 76.9205 82.589 76.8679 82.5015 76.8059C82.4755 76.789 82.4513 76.7702 82.4271 76.7514C82.347 76.695 82.5108 76.8228 82.4345 76.757C82.3842 76.7119 82.3321 76.6687 82.2837 76.6199C82.2353 76.571 82.1888 76.5166 82.1441 76.4639C82.0864 76.3963 82.2018 76.5466 82.1478 76.4696C82.1329 76.447 82.1162 76.4245 82.1013 76.402C82.0362 76.3061 81.9803 76.2047 81.9301 76.0995C81.9207 76.0788 81.9133 76.0581 81.904 76.0393C81.9691 76.1765 81.9338 76.1089 81.9189 76.075C81.904 76.0337 81.8891 75.9924 81.8761 75.951C81.8556 75.889 81.8388 75.8252 81.8258 75.7613C81.7718 75.5208 81.4852 75.3574 81.2525 75.4325C81.0031 75.5133 80.8709 75.7538 80.9267 76.0112C81.1389 76.9656 81.9096 77.749 82.8515 77.9782C83.0879 78.0365 83.3671 77.9031 83.4248 77.6495C83.4825 77.3958 83.3522 77.1328 83.099 77.0708V77.0727Z" fill="#241F20"/>
<path id="Vector_27" d="M85.214 77.1188C89.5195 78.4132 89.7038 86.5596 83.5648 86.6103C77.4258 86.6611 79.7377 75.4711 85.214 77.1188Z" fill="#241F20"/>
<path id="Vector_28" d="M83.997 85.3264C83.9709 86.2582 81.229 85.2832 81.3537 84.635C81.4785 83.9868 84.0137 84.7233 83.997 85.3264Z" fill="white"/>
<path id="Vector_29" d="M86.577 83.7363C87.0442 84.345 85.9478 85.4103 85.1214 84.5423C84.2949 83.6743 85.9032 82.8589 86.577 83.7363Z" fill="white"/>
<path id="Vector_30" d="M85.3934 78.821C86.4395 80.1812 83.9862 82.5635 82.1359 80.6227C80.2857 78.6819 83.8838 76.8558 85.3934 78.821Z" fill="white"/>
</g>
<g id="Group_9">
<path id="Vector_31" d="M113.651 85.2686C114.327 85.3269 114.995 84.953 115.341 84.3724C115.468 84.162 115.395 83.8464 115.174 83.7299C114.952 83.6134 114.671 83.6735 114.537 83.899C114.509 83.946 114.478 83.9911 114.444 84.0361L114.517 83.9403C114.448 84.0305 114.368 84.1094 114.28 84.1808L114.375 84.1075C114.282 84.1808 114.18 84.2409 114.072 84.2879L114.184 84.2409C114.072 84.2879 113.955 84.3217 113.834 84.3386L113.957 84.3217C113.854 84.3349 113.754 84.3386 113.651 84.3292C113.538 84.3198 113.4 84.3894 113.322 84.4664C113.244 84.5434 113.18 84.6824 113.186 84.7989C113.191 84.9154 113.231 85.0469 113.322 85.1315C113.413 85.216 113.521 85.2573 113.651 85.2686Z" fill="#241F20"/>
<path id="Vector_32" d="M112.649 84.1422C113.621 84.2249 114.58 83.7007 115.08 82.8646C115.207 82.6542 115.134 82.3386 114.913 82.2221C114.691 82.1056 114.41 82.1657 114.276 82.3912C114.246 82.4419 114.213 82.4908 114.179 82.5396C114.17 82.5528 114.159 82.5678 114.15 82.5809C114.118 82.6242 114.224 82.4889 114.176 82.5471C114.148 82.5809 114.118 82.6148 114.088 82.6486C114.021 82.7218 113.95 82.7857 113.876 82.8515C113.798 82.921 113.962 82.7914 113.872 82.8552C113.85 82.8703 113.829 82.8872 113.807 82.9022C113.755 82.9379 113.703 82.9698 113.649 83.0018C113.599 83.03 113.537 83.0732 113.479 83.0882C113.582 83.0619 113.47 83.0901 113.452 83.0976C113.424 83.1089 113.396 83.1183 113.366 83.1277C113.306 83.1465 113.247 83.1634 113.185 83.1765C113.148 83.184 113.061 83.184 113.033 83.2047C113.103 83.1953 113.12 83.1934 113.085 83.1972C113.072 83.1972 113.057 83.2009 113.044 83.2009C113.022 83.2028 112.999 83.2047 112.977 83.2066C112.932 83.2103 112.889 83.2122 112.845 83.2122C112.78 83.2122 112.713 83.2103 112.647 83.2047C112.404 83.184 112.171 83.4358 112.182 83.6744C112.193 83.9468 112.387 84.1215 112.647 84.1441L112.649 84.1422Z" fill="#241F20"/>
<path id="Vector_33" d="M110.652 82.5723C106.162 82.4295 103.439 90.1005 109.249 92.1052C115.056 94.1098 116.363 82.7545 110.652 82.5723Z" fill="#241F20"/>
<path id="Vector_34" d="M109.242 90.7501C108.976 91.6425 111.881 91.5899 111.965 90.9361C112.049 90.2823 109.413 90.1733 109.242 90.7501Z" fill="white"/>
<path id="Vector_35" d="M107.289 88.4219C106.654 88.8503 107.363 90.2105 108.419 89.6507C109.476 89.0908 108.205 87.8038 107.289 88.4219Z" fill="white"/>
<path id="Vector_36" d="M109.951 84.1257C108.532 85.0839 110.116 88.1238 112.478 86.8725C114.841 85.6212 111.998 82.7411 109.951 84.1257Z" fill="white"/>
</g>
<path id="Vector_37" d="M98.5502 89.3875C98.405 90.2291 97.2305 91.131 96.0131 90.9149C94.7957 90.6988 93.9953 89.4495 94.1424 88.6078C94.2894 87.7661 95.3114 87.7322 96.5287 87.9483C97.7461 88.1644 98.6973 88.5476 98.5502 89.3875Z" fill="#FF7F63"/>
<path id="Vector_38" d="M87.8678 59.2547L85.0793 47.6645C84.4911 48.2733 83.9886 48.8745 83.553 49.4588C82.0303 51.5066 81.3453 53.361 80.7888 54.6968C79.7296 57.2444 79.4281 59.0931 78.9422 60.9212C78.6258 62.1161 78.2293 63.3035 77.4903 64.6712C77.481 64.6863 77.4736 64.705 77.4643 64.7201C75.2975 68.6937 70.8506 70.8186 66.426 70.037L65.3631 69.8491C56.7764 68.3311 53.2769 57.7855 59.2483 51.3751C59.3023 51.3169 59.3544 51.2605 59.4103 51.2041C63.4179 46.9318 67.4665 43.736 70.979 41.3819C72.1294 40.6116 73.4045 40.0818 74.7317 39.8037C74.9755 39.753 75.2194 39.7117 75.4688 39.676C76.567 39.5275 77.6913 39.5463 78.8026 39.7436C79.2903 39.7925 82.6651 40.1814 84.9788 43.1235C85.111 43.2926 85.2394 43.4692 85.3641 43.6552C86.6951 45.6392 86.9296 47.7115 86.8384 49.269C86.6932 51.7171 86.8458 54.1726 87.3298 56.5756C87.5085 57.4699 87.6872 58.366 87.8678 59.2585V59.2547Z" fill="white"/>
<path id="Vector_39" opacity="0.5" d="M77.7549 64.1562C77.3938 64.919 76.7479 66.0501 75.6366 67.1529C74.583 68.1956 73.5164 68.8137 72.7793 69.167C73.3247 69.0599 74.8008 68.6954 76.0833 67.3727C77.2988 66.1196 77.6488 64.7142 77.7568 64.1581L77.7549 64.1562Z" fill="#E0E0E0"/>
<path id="Vector_40" opacity="0.5" d="M87.8614 59.1695C87.0033 59.44 86.1582 59.7444 85.3299 60.0825C85.086 59.4832 84.8738 58.897 84.6914 58.3334C84.7398 58.247 84.7901 58.1605 84.8366 58.0704C86.3499 55.2935 86.7427 52.6764 86.7911 51.3594C86.7967 52.4772 86.8153 53.6646 87.0331 54.9347C87.2993 56.4941 87.5692 57.8919 87.8633 59.1695H87.8614Z" fill="#E0E0E0"/>
<path id="Vector_41" d="M98.7633 97.8185C98.4487 96.4244 97.5142 95.1055 96.2075 94.5005C94.9008 93.8956 93.4154 93.9501 92.1161 94.602C91.6787 94.8218 91.5223 95.4813 91.7829 95.8871C92.0714 96.338 92.5889 96.4582 93.0561 96.2234C93.112 96.1952 93.1697 96.1708 93.2255 96.1426C93.2702 96.1201 92.9724 96.2422 93.1715 96.167C93.2162 96.1501 93.2609 96.1332 93.3056 96.1182C93.4098 96.0825 93.514 96.0505 93.622 96.0224C93.7169 95.9979 93.8975 95.9247 93.9943 95.9453C93.8584 95.9622 93.8435 95.966 93.9515 95.9528C93.9868 95.9491 94.0222 95.9453 94.0576 95.9435C94.1302 95.9378 94.2046 95.9359 94.2772 95.9341C94.3666 95.9341 94.4559 95.9341 94.5453 95.9416C94.5937 95.9453 94.8245 95.9848 94.6179 95.9453C94.7798 95.9754 94.9399 96.0111 95.0981 96.0618C95.1595 96.0806 95.221 96.105 95.2824 96.1257C95.4611 96.1877 95.1093 96.0411 95.3271 96.1464C95.4536 96.2065 95.5746 96.276 95.6919 96.3511C95.7459 96.3868 95.798 96.4244 95.852 96.4601C96.0065 96.5634 95.7142 96.338 95.8669 96.4714C95.9655 96.5559 96.0623 96.6424 96.1517 96.7363C96.1963 96.7833 96.241 96.8302 96.2838 96.8791C96.3006 96.8979 96.4681 97.1045 96.3769 96.9862C96.2857 96.8678 96.4234 97.0538 96.4402 97.0782C96.483 97.1421 96.5258 97.2079 96.5649 97.2736C96.6338 97.3882 96.6971 97.5066 96.7529 97.6287C96.7846 97.6982 96.8869 97.8203 96.766 97.6531C96.8013 97.702 96.8162 97.7865 96.8367 97.8448C96.8888 97.9988 96.9297 98.1548 96.9651 98.3126C97.0731 98.7917 97.6464 99.1205 98.1099 98.9683C98.6069 98.8067 98.8768 98.3257 98.7595 97.8128L98.7633 97.8185Z" fill="black"/>
<path id="Vector_42" opacity="0.35" d="M117.806 122.602L118.471 127.744C118.193 126.607 117.791 125.294 117.196 123.876C116.568 122.382 115.872 121.12 115.223 120.094C115.669 120.468 116.137 120.885 116.613 121.349C117.051 121.775 117.447 122.196 117.806 122.6V122.602Z" fill="#E0E0E0"/>
<path id="Vector_43" d="M115.744 82.1019C115.841 82.1226 115.936 82.1526 116.029 82.1902L115.808 82.0963C115.971 82.1677 116.12 82.2616 116.262 82.3706L116.074 82.224C116.249 82.3649 116.405 82.5265 116.543 82.705L116.398 82.5152C116.526 82.6843 116.634 82.8684 116.718 83.0638L116.625 82.8403C116.688 82.9906 116.735 83.1465 116.757 83.3081C116.787 83.5241 117.008 83.7646 117.185 83.8698C117.384 83.9882 117.678 84.037 117.902 83.9638C118.125 83.8905 118.345 83.7496 118.458 83.5317L118.551 83.3081C118.596 83.1409 118.596 82.9755 118.551 82.8083C118.51 82.519 118.391 82.2391 118.263 81.9817C118.125 81.7074 117.935 81.4537 117.734 81.2245C117.533 80.9953 117.297 80.8037 117.047 80.6383C116.798 80.473 116.524 80.3509 116.241 80.2926C115.996 80.2419 115.746 80.2569 115.525 80.3866C115.331 80.5012 115.147 80.7248 115.097 80.9483C115.043 81.1888 115.054 81.4594 115.19 81.6717C115.316 81.8689 115.51 82.0549 115.746 82.1038L115.744 82.1019Z" fill="#00C0F0"/>
<path id="Vector_44" opacity="0.35" d="M93.5996 110.32C93.689 110.97 93.9514 112.148 94.8579 113.187C95.0888 113.452 95.4033 113.813 95.932 114.117C97.2406 114.871 98.1676 114.303 98.8097 115.045C99.1039 115.386 99.4966 115.637 99.7684 115.998C99.8037 116.045 99.9043 116.175 100.025 116.173C100.081 116.173 100.143 116.107 100.265 115.944C100.433 115.716 97.3653 111.679 97.3653 111.679L93.6015 110.322L93.5996 110.32Z" fill="#6E7275"/>
<path id="Vector_45" d="M95.255 112.654C95.5734 112.896 95.8656 113.17 96.1429 113.458C96.4724 113.8 97.1779 114.309 98.4381 114.284C98.4381 114.284 98.909 114.256 99.1845 114.583C99.3669 114.799 99.4656 115.656 99.527 115.797C99.7746 116.36 101.863 115.622 104.383 114.66C105.495 114.237 107.144 113.463 108.935 112.004C108.773 111.772 108.596 111.517 108.467 111.213C108.218 110.63 107.941 109.676 107.82 108.184C107.82 108.184 107.701 104.999 106.991 103.759C106.388 102.705 106.016 102.087 105.137 101.283C104.799 100.973 104.48 100.643 104.197 100.282C103.408 99.2804 101.697 97.242 100.605 96.947C99.1938 96.5656 96.7777 97.3716 98.3822 100.507L98.5665 100.876C98.5665 100.876 93.3452 102.493 93.2056 107.109C93.0977 110.692 94.3802 111.985 95.2513 112.652L95.255 112.654Z" fill="url(#paint6_linear_13019_10958)"/>
<path id="Vector_46" d="M108.43 111.561C107.277 112.525 105.859 113.491 104.143 114.272C102.46 115.041 100.835 115.475 99.3794 115.715C98.9327 115.92 98.8731 116.779 99.251 117.615C99.6307 118.456 100.305 118.973 100.755 118.766C102.211 118.552 103.856 118.135 105.563 117.353C107.281 116.566 108.683 115.584 109.805 114.612C110.252 114.408 110.312 113.549 109.934 112.713C109.554 111.871 108.88 111.354 108.43 111.561Z" fill="#0076BE"/>
</g>
<path id="Vector_47" d="M80.5879 74.9566C81.2868 74.7667 81.7374 74.1782 81.5944 73.6422C81.4514 73.1061 80.7689 72.8256 80.0701 73.0155C79.3712 73.2054 78.9206 73.7939 79.0636 74.3299C79.2066 74.866 79.8891 75.1466 80.5879 74.9566Z" fill="#00C0F0"/>
</g>
</g>
</g>
</g>
<g id="Group_10">
<g id="Group_11">
<path id="Vector_48" d="M54.4777 140.547H74.0394C74.8585 140.547 75.523 141.218 75.523 142.044H52.9941C52.9941 141.218 53.6587 140.547 54.4777 140.547Z" fill="#CACACA"/>
<path id="Vector_49" d="M71.1457 134.445H57.3674C57.3674 134.445 58.3912 138.549 55.9453 140.544H72.5679C70.1219 138.549 71.1457 134.445 71.1457 134.445Z" fill="url(#paint7_linear_13019_10958)"/>
<path id="Vector_50" d="M97.0699 100.849V133.836C97.0699 134.558 96.4091 135.142 95.5975 135.142H33.5915C32.7799 135.142 32.1191 134.558 32.1191 133.836V100.849C32.1191 100.131 32.7799 99.5469 33.5915 99.5469H95.5975C96.4091 99.5469 97.0699 100.131 97.0699 100.849Z" fill="#E2F0FF"/>
<path id="Vector_51" d="M95.8923 100.849V133.836C95.8923 134.558 95.2315 135.142 94.4199 135.142H32.4157C31.6042 135.142 30.9434 134.558 30.9434 133.836V100.849C30.9434 100.131 31.6042 99.5469 32.4157 99.5469H94.4217C95.2333 99.5469 95.8941 100.131 95.8941 100.849H95.8923Z" fill="url(#paint8_linear_13019_10958)"/>
<path id="Vector_52" opacity="0.19" d="M56.7461 125.996C56.7461 125.808 56.5953 125.656 56.4092 125.656C56.2231 125.656 56.0723 125.808 56.0723 125.996V130.453C56.0723 130.641 56.2231 130.793 56.4092 130.793C56.5953 130.793 56.7461 130.641 56.7461 130.453V125.996Z" fill="black"/>
<path id="Vector_53" opacity="0.19" d="M59.3633 125.996C59.3633 125.808 59.2124 125.656 59.0264 125.656C58.8403 125.656 58.6895 125.808 58.6895 125.996V130.453C58.6895 130.641 58.8403 130.793 59.0264 130.793C59.2124 130.793 59.3633 130.641 59.3633 130.453V125.996Z" fill="black"/>
<path id="Vector_54" opacity="0.19" d="M61.9785 125.996C61.9785 125.808 61.8277 125.656 61.6416 125.656C61.4555 125.656 61.3047 125.808 61.3047 125.996V130.453C61.3047 130.641 61.4555 130.793 61.6416 130.793C61.8277 130.793 61.9785 130.641 61.9785 130.453V125.996Z" fill="black"/>
<path id="Vector_55" opacity="0.19" d="M64.5957 125.996C64.5957 125.808 64.4449 125.656 64.2588 125.656C64.0727 125.656 63.9219 125.808 63.9219 125.996V130.453C63.9219 130.641 64.0727 130.793 64.2588 130.793C64.4449 130.793 64.5957 130.641 64.5957 130.453V125.996Z" fill="black"/>
<path id="Vector_56" opacity="0.19" d="M67.2109 125.996C67.2109 125.808 67.0601 125.656 66.874 125.656C66.688 125.656 66.5371 125.808 66.5371 125.996V130.453C66.5371 130.641 66.688 130.793 66.874 130.793C67.0601 130.793 67.2109 130.641 67.2109 130.453V125.996Z" fill="black"/>
<path id="Vector_57" opacity="0.19" d="M69.8281 125.996C69.8281 125.808 69.6773 125.656 69.4912 125.656C69.3051 125.656 69.1543 125.808 69.1543 125.996V130.453C69.1543 130.641 69.3051 130.793 69.4912 130.793C69.6773 130.793 69.8281 130.641 69.8281 130.453V125.996Z" fill="black"/>
<path id="Vector_58" opacity="0.19" d="M72.4434 125.996C72.4434 125.808 72.2925 125.656 72.1064 125.656C71.9204 125.656 71.7695 125.808 71.7695 125.996V130.453C71.7695 130.641 71.9204 130.793 72.1064 130.793C72.2925 130.793 72.4434 130.641 72.4434 130.453V125.996Z" fill="black"/>
</g>
<g id="Group_12">
<g id="Group_13">
<g id="Group_14">
<path id="Vector_59" d="M58.9727 115.974C58.9727 115.777 59.0173 115.591 59.0955 115.424L59.1904 115.257L59.479 114.753L60.9346 112.209L61.2343 111.685L61.3069 111.559C61.5321 111.214 61.9212 110.984 62.3623 110.984C62.8035 110.984 63.2167 111.229 63.4382 111.593L63.4419 111.601C63.5611 111.796 63.7286 111.956 63.9296 112.061C64.1046 112.155 64.3056 112.207 64.5178 112.207C64.9646 112.207 65.3574 111.974 65.5807 111.621C65.5807 111.621 65.5807 111.621 65.5807 111.619C65.59 111.604 65.5993 111.589 65.6068 111.574C65.6068 111.574 65.6068 111.574 65.6068 111.572C65.8302 111.219 66.2229 110.986 66.6697 110.986C67.3658 110.986 67.9317 111.557 67.9317 112.26C67.9317 112.469 67.8814 112.666 67.794 112.841L67.7307 112.951L67.323 113.664C67.1332 113.547 66.9079 113.479 66.6697 113.479C66.2229 113.479 65.8302 113.714 65.6068 114.066C65.6068 114.066 65.6068 114.066 65.6068 114.067C65.5975 114.082 65.59 114.098 65.5807 114.113C65.5807 114.113 65.5807 114.113 65.5807 114.114C65.3574 114.468 64.9646 114.701 64.5178 114.701C64.3056 114.701 64.1065 114.648 63.9296 114.554C63.7286 114.447 63.5592 114.287 63.4419 114.094L63.4382 114.086C63.2167 113.722 62.8165 113.478 62.3623 113.478C61.9081 113.478 61.5321 113.707 61.3069 114.052L61.2343 114.178L60.9346 114.702L59.5832 117.066C59.4008 116.953 59.2463 116.797 59.1402 116.609C59.0341 116.423 58.9727 116.205 58.9727 115.976V115.974Z" fill="#0076BE"/>
<path id="Vector_60" d="M58.9727 118.466C58.9727 118.269 59.0173 118.083 59.0955 117.916L59.1904 117.749L59.479 117.245L59.5813 117.065C59.7712 117.181 59.9946 117.247 60.2328 117.247C60.6777 117.247 61.0686 117.014 61.2939 116.664C61.2939 116.664 61.2939 116.663 61.2957 116.661C61.305 116.644 61.3143 116.629 61.3255 116.612C61.3255 116.61 61.3292 116.606 61.3311 116.604C61.5563 116.257 61.9454 116.026 62.3884 116.026C62.8314 116.026 63.239 116.268 63.4624 116.631L63.4587 116.623C63.4587 116.623 63.4643 116.633 63.4661 116.636C63.4661 116.636 63.4661 116.638 63.468 116.64C63.6895 117.006 64.0897 117.251 64.5458 117.251C65.0018 117.251 65.4225 116.993 65.6403 116.612L66.7013 114.758L67.3267 113.664C67.6916 113.888 67.9354 114.292 67.9354 114.754C67.9354 114.962 67.8852 115.16 67.7977 115.334L67.7344 115.445L66.7032 117.249L65.6422 119.103C65.4244 119.485 65.0167 119.742 64.5476 119.742C64.0786 119.742 63.6932 119.498 63.4699 119.131C63.4699 119.131 63.4699 119.129 63.468 119.128C63.4661 119.124 63.4624 119.118 63.4606 119.114L63.4643 119.122C63.2428 118.759 62.8444 118.517 62.3902 118.517C61.9361 118.517 61.5582 118.748 61.3329 119.096C61.3329 119.097 61.3292 119.101 61.3274 119.103C61.3181 119.12 61.3069 119.135 61.2976 119.152C61.2976 119.152 61.2976 119.154 61.2957 119.156C61.0705 119.507 60.6796 119.738 60.2347 119.738C59.7656 119.738 59.358 119.481 59.1402 119.099C59.0341 118.913 58.9727 118.695 58.9727 118.466Z" fill="#00C0F0"/>
<path id="Vector_61" d="M59.5818 117.065L60.9332 114.702L61.2328 114.177L61.3054 114.051C61.5307 113.706 61.9197 113.477 62.3609 113.477C62.802 113.477 63.2153 113.721 63.4368 114.085L63.4405 114.093C63.5596 114.288 63.7272 114.448 63.9282 114.553C64.1032 114.647 64.3042 114.7 64.5164 114.7C64.9631 114.7 65.3559 114.467 65.5793 114.113C65.5793 114.113 65.5793 114.113 65.5793 114.112C65.5886 114.097 65.5979 114.082 65.6053 114.067C65.6053 114.067 65.6053 114.066 65.6053 114.065C65.8287 113.711 66.2215 113.478 66.6682 113.478C66.9065 113.478 67.1317 113.546 67.3216 113.663L66.6961 114.756L65.6351 116.61C65.4173 116.992 65.0097 117.249 64.5406 117.249C64.0715 117.249 63.6862 117.005 63.4628 116.639C63.4628 116.639 63.4628 116.637 63.461 116.635C63.4591 116.631 63.4554 116.625 63.4535 116.622L63.4572 116.629C63.2357 116.267 62.8374 116.024 62.3832 116.024C61.929 116.024 61.5512 116.255 61.3259 116.603C61.3259 116.605 61.3222 116.608 61.3203 116.61C61.311 116.627 61.2999 116.642 61.2906 116.659C61.2906 116.659 61.2905 116.661 61.2887 116.663C61.0635 117.014 60.6726 117.245 60.2277 117.245C59.9894 117.245 59.766 117.18 59.5762 117.063L59.5818 117.065Z" fill="url(#paint9_linear_13019_10958)"/>
</g>
<path id="Vector_62" d="M70.1917 119.743C70.8887 119.743 71.4538 119.173 71.4538 118.469C71.4538 117.766 70.8887 117.195 70.1917 117.195C69.4947 117.195 68.9297 117.766 68.9297 118.469C68.9297 119.173 69.4947 119.743 70.1917 119.743Z" fill="#00C0F0"/>
</g>
</g>
</g>
<path id="Vector_63" d="M148.286 142.039H21.754C20.2438 142.039 19.0195 143.275 19.0195 144.799C19.0195 146.323 20.2438 147.559 21.754 147.559H148.286C149.797 147.559 151.021 146.323 151.021 144.799C151.021 143.275 149.797 142.039 148.286 142.039Z" fill="url(#paint10_linear_13019_10958)"/>
</g>
</g>
<defs>
<linearGradient id="paint0_linear_13019_10958" x1="84.6233" y1="124.798" x2="102.415" y2="122.366" gradientUnits="userSpaceOnUse">
<stop stop-color="#0076BE"/>
<stop offset="1" stop-color="#00C0F0"/>
</linearGradient>
<linearGradient id="paint1_linear_13019_10958" x1="101.926" y1="117.364" x2="93.2872" y2="102.538" gradientUnits="userSpaceOnUse">
<stop stop-color="#0076BE"/>
<stop offset="1" stop-color="#00C0F0"/>
</linearGradient>
<linearGradient id="paint2_linear_13019_10958" x1="113.881" y1="66.1383" x2="134.826" y2="41.3547" gradientUnits="userSpaceOnUse">
<stop stop-color="#0076BE"/>
<stop offset="1" stop-color="#00C0F0"/>
</linearGradient>
<linearGradient id="paint3_linear_13019_10958" x1="83.9622" y1="62.8061" x2="79.5846" y2="50.9236" gradientUnits="userSpaceOnUse">
<stop stop-color="#0076BE"/>
<stop offset="1" stop-color="#00C0F0"/>
</linearGradient>
<radialGradient id="paint4_radial_13019_10958" cx="0" cy="0" r="1" gradientUnits="userSpaceOnUse" gradientTransform="translate(75.2329 89.7902) rotate(10.0308) scale(6.79238 6.85187)">
<stop stop-color="#FFCEC1"/>
<stop offset="0.1" stop-color="#FFCFC3" stop-opacity="0.97"/>
<stop offset="0.24" stop-color="#FFD4C9" stop-opacity="0.9"/>
<stop offset="0.41" stop-color="#FFDDD4" stop-opacity="0.78"/>
<stop offset="0.59" stop-color="#FFE8E2" stop-opacity="0.62"/>
<stop offset="0.79" stop-color="#FFF7F5" stop-opacity="0.41"/>
<stop offset="0.88" stop-color="white" stop-opacity="0.3"/>
</radialGradient>
<radialGradient id="paint5_radial_13019_10958" cx="0" cy="0" r="1" gradientUnits="userSpaceOnUse" gradientTransform="translate(115.702 96.9464) rotate(10.0308) scale(6.79238 6.85187)">
<stop stop-color="#FFCEC1"/>
<stop offset="0.1" stop-color="#FFCFC3" stop-opacity="0.97"/>
<stop offset="0.24" stop-color="#FFD4C9" stop-opacity="0.9"/>
<stop offset="0.41" stop-color="#FFDDD4" stop-opacity="0.78"/>
<stop offset="0.59" stop-color="#FFE8E2" stop-opacity="0.62"/>
<stop offset="0.79" stop-color="#FFF7F5" stop-opacity="0.41"/>
<stop offset="0.88" stop-color="white" stop-opacity="0.3"/>
</radialGradient>
<linearGradient id="paint6_linear_13019_10958" x1="104.335" y1="115.547" x2="97.4001" y2="101.275" gradientUnits="userSpaceOnUse">
<stop stop-color="#0076BE"/>
<stop offset="1" stop-color="#00C0F0"/>
</linearGradient>
<linearGradient id="paint7_linear_13019_10958" x1="64.2584" y1="133.23" x2="64.2584" y2="140.125" gradientUnits="userSpaceOnUse">
<stop stop-color="#BABCBE"/>
<stop offset="1" stop-color="#EFF0F0"/>
</linearGradient>
<linearGradient id="paint8_linear_13019_10958" x1="63.4178" y1="98.2749" x2="63.4178" y2="134.355" gradientUnits="userSpaceOnUse">
<stop stop-color="#BABCBE"/>
<stop offset="1" stop-color="#EFF0F0"/>
</linearGradient>
<linearGradient id="paint9_linear_13019_10958" x1="64.6206" y1="117.399" x2="62.2538" y2="113.34" gradientUnits="userSpaceOnUse">
<stop stop-color="#0076BE"/>
<stop offset="1" stop-color="#00C0F0"/>
</linearGradient>
<linearGradient id="paint10_linear_13019_10958" x1="19.0195" y1="144.799" x2="151.023" y2="144.799" gradientUnits="userSpaceOnUse">
<stop stop-color="#0076BE"/>
<stop offset="1" stop-color="#00C0F0"/>
</linearGradient>
<clipPath id="clip0_13019_10958">
<rect width="180" height="180" fill="white"/>
</clipPath>
</defs>
</svg>
