<svg width="24" height="24" viewBox="0 0 24 24" fill="none" xmlns="http://www.w3.org/2000/svg">
<path fill-rule="evenodd" clip-rule="evenodd" d="M2 12C2 6.477 6.477 2 12 2C17.523 2 22 6.477 22 12C22 17.522 17.523 22 12 22C6.477 22 2 17.522 2 12ZM11.727 15.605L16.295 9.605C16.63 9.166 16.545 8.539 16.106 8.204C15.665 7.869 15.038 7.955 14.704 8.394L10.92 13.363L9.287 11.277C8.947 10.841 8.317 10.765 7.883 11.106C7.448 11.446 7.372 12.075 7.712 12.509L10.144 15.616C10.334 15.858 10.624 16 10.931 16H10.938C11.248 15.998 11.539 15.852 11.727 15.605Z" fill="#2389FF"/>
<mask id="mask0_11425_23102" style="mask-type:luminance" maskUnits="userSpaceOnUse" x="2" y="2" width="20" height="20">
<path fill-rule="evenodd" clip-rule="evenodd" d="M2 12C2 6.477 6.477 2 12 2C17.523 2 22 6.477 22 12C22 17.522 17.523 22 12 22C6.477 22 2 17.522 2 12ZM11.727 15.605L16.295 9.605C16.63 9.166 16.545 8.539 16.106 8.204C15.665 7.869 15.038 7.955 14.704 8.394L10.92 13.363L9.287 11.277C8.947 10.841 8.317 10.765 7.883 11.106C7.448 11.446 7.372 12.075 7.712 12.509L10.144 15.616C10.334 15.858 10.624 16 10.931 16H10.938C11.248 15.998 11.539 15.852 11.727 15.605Z" fill="white"/>
</mask>
<g mask="url(#mask0_11425_23102)">
</g>
</svg>
