<svg width="24" height="24" viewBox="0 0 24 24" fill="none" xmlns="http://www.w3.org/2000/svg">
<g id="icon/general/24x24/fill/checkmark-circle-fill">
<path id="&#240;&#159;&#142;&#168; Icon &#208;&#161;olor" fill-rule="evenodd" clip-rule="evenodd" d="M2 12.0005C2 6.47749 6.477 2.00049 12 2.00049C17.523 2.00049 22 6.47749 22 12.0005C22 17.5225 17.523 22.0005 12 22.0005C6.477 22.0005 2 17.5225 2 12.0005ZM11.727 15.6055L16.295 9.60549C16.63 9.16649 16.545 8.53949 16.106 8.20449C15.665 7.86949 15.038 7.95549 14.704 8.39449L10.92 13.3635L9.287 11.2775C8.947 10.8415 8.317 10.7655 7.883 11.1065C7.448 11.4465 7.372 12.0755 7.712 12.5095L10.144 15.6165C10.334 15.8585 10.624 16.0005 10.931 16.0005H10.938C11.248 15.9985 11.539 15.8525 11.727 15.6055Z" fill="#2389FF"/>
<mask id="mask0_11743_115854" style="mask-type:luminance" maskUnits="userSpaceOnUse" x="2" y="2" width="20" height="21">
<path id="&#240;&#159;&#142;&#168; Icon &#208;&#161;olor_2" fill-rule="evenodd" clip-rule="evenodd" d="M2 12.0005C2 6.47749 6.477 2.00049 12 2.00049C17.523 2.00049 22 6.47749 22 12.0005C22 17.5225 17.523 22.0005 12 22.0005C6.477 22.0005 2 17.5225 2 12.0005ZM11.727 15.6055L16.295 9.60549C16.63 9.16649 16.545 8.53949 16.106 8.20449C15.665 7.86949 15.038 7.95549 14.704 8.39449L10.92 13.3635L9.287 11.2775C8.947 10.8415 8.317 10.7655 7.883 11.1065C7.448 11.4465 7.372 12.0755 7.712 12.5095L10.144 15.6165C10.334 15.8585 10.624 16.0005 10.931 16.0005H10.938C11.248 15.9985 11.539 15.8525 11.727 15.6055Z" fill="white"/>
</mask>
<g mask="url(#mask0_11743_115854)">
</g>
</g>
</svg>
