<svg width="71" height="61" viewBox="0 0 71 61" fill="none" xmlns="http://www.w3.org/2000/svg">
<path d="M37.1484 14.8475L37.2408 14.8751L37.2448 14.8705C37.6851 14.9505 38.122 14.6869 38.2513 14.2502C39.4312 10.2857 43.1483 7.5162 47.2897 7.5162C47.7794 7.5162 48.1765 7.11905 48.1765 6.62939C48.1765 6.13971 47.7793 5.74258 47.2897 5.74258C42.201 5.74258 37.9247 9.13067 36.5517 13.7447C36.4117 14.2142 36.6792 14.7076 37.1484 14.8475Z" fill="currentColor" stroke="none" stroke-width="0.3"/>
<path d="M57.6044 42.7326H53.1837C52.7769 42.7326 52.4469 42.4026 52.4469 41.9958C52.4469 41.589 52.7768 41.259 53.1837 41.259H57.6044C63.6983 41.259 68.6565 36.3008 68.6565 30.2069C68.6565 24.1131 63.6983 19.1549 57.6044 19.1549H57.4981C57.2845 19.1549 57.0813 19.0623 56.9413 18.9007C56.8013 18.7391 56.7382 18.5249 56.7687 18.3134C56.8345 17.8545 56.8676 17.3934 56.8676 16.9445C56.8676 11.6632 52.5704 7.36602 47.2891 7.36602C45.2345 7.36602 43.2751 8.00809 41.6225 9.22327C41.2594 9.49011 40.7436 9.37169 40.5337 8.97223C35.8534 0.0601131 23.6291 -1.13669 17.2914 6.61607C14.6216 9.8822 13.5726 14.1309 14.4131 18.2718C14.5058 18.7292 14.1558 19.1555 13.6911 19.1555H13.3958C7.30199 19.1555 2.34379 24.1137 2.34379 30.2075C2.34379 36.3013 7.30199 41.2595 13.3958 41.2595H17.8166C18.2234 41.2595 18.5534 41.5895 18.5534 41.9963C18.5534 42.4032 18.2234 42.7332 17.8166 42.7332H13.3958C6.4893 42.7332 0.870117 37.114 0.870117 30.2075C0.870117 23.4947 6.17821 17.9981 12.8174 17.6949C12.1938 13.3988 13.3864 9.06536 16.1504 5.6835C22.9358 -2.61762 35.9395 -1.68717 41.4365 7.56918C43.1901 6.46976 45.1968 5.893 47.2889 5.893C53.6875 5.893 58.7578 11.3391 58.3141 17.7018C64.8922 18.0707 70.1298 23.5383 70.1298 30.2069C70.1298 37.114 64.5106 42.7326 57.6041 42.7326L57.6044 42.7326Z" fill="currentColor"/>
<path d="M16.731 41.5795C16.731 51.8746 25.1063 60.2498 35.4012 60.2498C45.6963 60.2498 54.0715 51.8744 54.0715 41.5795C54.0715 31.2844 45.6963 22.9092 35.4012 22.9092C25.1061 22.9092 16.731 31.2845 16.731 41.5795ZM18.7049 41.5795C18.7049 32.3735 26.1951 24.8831 35.4012 24.8831C44.6072 24.8831 52.0976 32.3733 52.0976 41.5795C52.0976 50.7855 44.6072 58.2758 35.4012 58.2758C26.1952 58.2758 18.7049 50.7856 18.7049 41.5795Z" fill="currentColor" stroke="none" stroke-width="0.5"/>
<path d="M35.0487 48.9952C35.0487 49.3759 35.3575 49.6846 35.7382 49.6846C36.1188 49.6846 36.4276 49.3763 36.4276 48.9952V34.9701C36.4276 34.5894 36.1188 34.2807 35.7382 34.2807C35.3575 34.2807 35.0487 34.5894 35.0487 34.9701V48.9952Z" fill="currentColor" stroke="currentColor" stroke-width="0.3"/>
<path d="M35.7382 35.9471L31.9104 39.7749L35.7382 35.9471ZM35.7382 35.9471L39.566 39.775C39.7005 39.9094 39.8774 39.9769 40.0535 39.9769L35.7382 35.9471ZM30.9353 39.775C31.2046 40.0442 31.6413 40.0444 31.9103 39.775L40.0536 39.9769C40.2293 39.9769 40.4064 39.91 40.5411 39.7749C40.8104 39.5056 40.8103 39.0693 40.541 38.8L36.2257 34.4846C35.9564 34.2154 35.5197 34.2152 35.2507 34.4846C35.2506 34.4847 35.2506 34.4847 35.2506 34.4847L30.9353 38.8C30.666 39.0693 30.666 39.5057 30.9353 39.775Z" fill="currentColor" stroke="currentColor" stroke-width="0.3"/>
</svg>
