<svg width="24" height="24" viewBox="0 0 24 24" fill="none" xmlns="http://www.w3.org/2000/svg">
<path d="M19.7246 11.2104V20.2104C19.7246 20.5585 19.5863 20.8924 19.3402 21.1385C19.094 21.3847 18.7602 21.5229 18.4121 21.5229H4.91211C4.56401 21.5229 4.23017 21.3847 3.98403 21.1385C3.73789 20.8924 3.59961 20.5585 3.59961 20.2104V11.2104C3.59961 10.8623 3.73789 10.5285 3.98403 10.2824C4.23017 10.0362 4.56401 9.89794 4.91211 9.89794H7.16211C7.31129 9.89794 7.45437 9.95721 7.55986 10.0627C7.66535 10.1682 7.72461 10.3113 7.72461 10.4604C7.72461 10.6096 7.66535 10.7527 7.55986 10.8582C7.45437 10.9637 7.31129 11.0229 7.16211 11.0229H4.91211C4.86238 11.0229 4.81469 11.0427 4.77953 11.0779C4.74436 11.113 4.72461 11.1607 4.72461 11.2104V20.2104C4.72461 20.2602 4.74436 20.3079 4.77953 20.343C4.81469 20.3782 4.86238 20.3979 4.91211 20.3979H18.4121C18.4618 20.3979 18.5095 20.3782 18.5447 20.343C18.5799 20.3079 18.5996 20.2602 18.5996 20.2104V11.2104C18.5996 11.1607 18.5799 11.113 18.5447 11.0779C18.5095 11.0427 18.4618 11.0229 18.4121 11.0229H16.1621C16.0129 11.0229 15.8699 10.9637 15.7644 10.8582C15.6589 10.7527 15.5996 10.6096 15.5996 10.4604C15.5996 10.3113 15.6589 10.1682 15.7644 10.0627C15.8699 9.95721 16.0129 9.89794 16.1621 9.89794H18.4121C18.7602 9.89794 19.094 10.0362 19.3402 10.2824C19.5863 10.5285 19.7246 10.8623 19.7246 11.2104ZM8.30961 7.10794L11.0996 4.31888V13.4604C11.0996 13.6096 11.1589 13.7527 11.2644 13.8582C11.3699 13.9637 11.5129 14.0229 11.6621 14.0229C11.8113 14.0229 11.9544 13.9637 12.0599 13.8582C12.1653 13.7527 12.2246 13.6096 12.2246 13.4604V4.31888L15.0146 7.10794C15.0661 7.16321 15.1282 7.20753 15.1972 7.23828C15.2662 7.26902 15.3407 7.28555 15.4162 7.28689C15.4917 7.28822 15.5668 7.27433 15.6368 7.24604C15.7068 7.21774 15.7705 7.17564 15.8239 7.12222C15.8773 7.06881 15.9194 7.00518 15.9477 6.93514C15.976 6.8651 15.9899 6.79008 15.9886 6.71455C15.9872 6.63902 15.9707 6.56454 15.9399 6.49554C15.9092 6.42654 15.8649 6.36444 15.8096 6.31294L12.0596 2.56294C11.9541 2.4576 11.8112 2.39844 11.6621 2.39844C11.513 2.39844 11.3701 2.4576 11.2646 2.56294L7.51461 6.31294C7.45934 6.36444 7.41502 6.42654 7.38427 6.49554C7.35353 6.56454 7.337 6.63902 7.33567 6.71455C7.33433 6.79008 7.34823 6.8651 7.37652 6.93514C7.40481 7.00518 7.44692 7.06881 7.50033 7.12222C7.55375 7.17564 7.61737 7.21774 7.68741 7.24604C7.75745 7.27433 7.83247 7.28822 7.908 7.28689C7.98353 7.28555 8.05801 7.26902 8.12701 7.23828C8.19601 7.20753 8.25811 7.16321 8.30961 7.10794Z" fill="black"/>
</svg>
