<svg width="33" height="32" viewBox="0 0 33 32" fill="none" xmlns="http://www.w3.org/2000/svg">
<g id="Icon / Line">
<path id="Vector" fill-rule="evenodd" clip-rule="evenodd" d="M32.5 13.7842C32.5 6.77243 25.3226 1.06665 16.5 1.06665C7.67742 1.06665 0.5 6.77243 0.5 13.7842C0.5 20.0717 6.19875 25.3383 13.8801 26.3328C14.402 26.443 15.1113 26.6692 15.2898 27.1055C15.4517 27.5022 15.3962 28.1236 15.3422 28.5232C15.3422 28.5232 15.1548 29.6294 15.1143 29.8644L15.1083 29.8979C15.0317 30.3215 14.8376 31.3954 16.5 30.7106C18.2081 30.0069 25.714 25.3956 29.0703 21.6098C31.3887 19.1198 32.5 16.5871 32.5 13.7842ZM27.1761 17.8344H22.6771C22.5976 17.8344 22.5213 17.8034 22.465 17.7483C22.4088 17.6932 22.3772 17.6185 22.3772 17.5406V10.6948C22.3772 10.6169 22.4088 10.5421 22.465 10.487C22.5213 10.4319 22.5976 10.401 22.6771 10.401H27.1761C27.2557 10.401 27.332 10.4319 27.3882 10.487C27.4445 10.5421 27.4761 10.6169 27.4761 10.6948V11.8069C27.4761 11.8848 27.4445 11.9595 27.3882 12.0146C27.332 12.0697 27.2557 12.1007 27.1761 12.1007H24.1213V13.2539H27.1761C27.2557 13.2539 27.332 13.2848 27.3882 13.3399C27.4445 13.395 27.4761 13.4698 27.4761 13.5477V14.6774C27.4761 14.7553 27.4445 14.83 27.3882 14.8851C27.332 14.9402 27.2557 14.9712 27.1761 14.9712H24.1213V16.1259H27.1761C27.2557 16.1259 27.332 16.1568 27.3882 16.2119C27.4445 16.267 27.4761 16.3417 27.4761 16.4197V17.5303C27.4775 17.5697 27.4708 17.609 27.4563 17.6459C27.4419 17.6827 27.42 17.7163 27.392 17.7447C27.364 17.7731 27.3305 17.7957 27.2934 17.8111C27.2563 17.8265 27.2164 17.8344 27.1761 17.8344ZM10.7614 17.7483C10.7051 17.8034 10.6288 17.8344 10.5493 17.8344L10.5598 17.83H6.06075C5.9812 17.83 5.90492 17.799 5.84867 17.7439C5.79242 17.6888 5.76082 17.6141 5.76082 17.5361V10.7007C5.76082 10.6227 5.79242 10.548 5.84867 10.4929C5.90492 10.4378 5.9812 10.4069 6.06075 10.4069H7.1945C7.27405 10.4069 7.35035 10.4378 7.40659 10.4929C7.46284 10.548 7.49444 10.6227 7.49444 10.7007V16.1361H10.5493C10.6288 16.1361 10.7051 16.1671 10.7614 16.2222C10.8176 16.2773 10.8492 16.352 10.8492 16.43V17.5406C10.8492 17.6185 10.8176 17.6932 10.7614 17.7483ZM13.2547 10.3966H12.1209C11.952 10.3966 11.815 10.5307 11.815 10.6963V17.5361C11.815 17.7017 11.952 17.8358 12.1209 17.8358H13.2547C13.4236 17.8358 13.5606 17.7017 13.5606 17.5361V10.6963C13.5606 10.5307 13.4236 10.3966 13.2547 10.3966ZM19.8457 10.3951H20.9795C21.0194 10.3951 21.0589 10.4029 21.0957 10.418C21.1325 10.4331 21.1658 10.4553 21.1937 10.4832C21.2217 10.5111 21.2436 10.5442 21.2583 10.5805C21.2731 10.6169 21.2802 10.6557 21.2794 10.6948V17.5097C21.2794 17.5876 21.2478 17.6624 21.1916 17.7175C21.1353 17.7726 21.059 17.8035 20.9795 17.8035H19.8517C19.8244 17.8031 19.7973 17.7996 19.7708 17.7932H19.7003L19.6823 17.7815C19.6517 17.761 19.6252 17.7351 19.6043 17.7051L16.4055 13.4742V17.5773C16.4055 17.6552 16.3739 17.7299 16.3176 17.785C16.2614 17.8401 16.1851 17.8711 16.1056 17.8711H14.9703C14.8908 17.8711 14.8145 17.8401 14.7582 17.785C14.702 17.7299 14.6704 17.6552 14.6704 17.5773V10.7374C14.6704 10.6595 14.702 10.5847 14.7582 10.5296C14.8145 10.4745 14.8908 10.4436 14.9703 10.4436H16.2405L16.257 10.4524H16.266L16.2825 10.4641H16.2915L16.308 10.4774L16.326 10.495C16.3357 10.5043 16.3442 10.5147 16.3515 10.5258L19.5458 14.7523V10.6889C19.5458 10.611 19.5774 10.5363 19.6337 10.4812C19.6899 10.4261 19.7662 10.3951 19.8457 10.3951Z" fill="white"/>
</g>
</svg>
