<svg width="20" height="24" viewBox="0 0 20 24" fill="none" xmlns="http://www.w3.org/2000/svg">
<path d="M9.83333 23.668C11.1167 23.668 12.1667 22.618 12.1667 21.3346H7.5C7.5 22.618 8.55 23.668 9.83333 23.668ZM16.8333 16.668V10.8346C16.8333 7.25297 14.9317 4.25464 11.5833 3.4613V2.66797C11.5833 1.69964 10.8017 0.917969 9.83333 0.917969C8.865 0.917969 8.08333 1.69964 8.08333 2.66797V3.4613C4.74667 4.25464 2.83333 7.2413 2.83333 10.8346V16.668L0.5 19.0013V20.168H19.1667V19.0013L16.8333 16.668ZM14.5 17.8346H5.16667V10.8346C5.16667 7.9413 6.92833 5.58464 9.83333 5.58464C12.7383 5.58464 14.5 7.9413 14.5 10.8346V17.8346Z" fill="black"/>
</svg>
