<svg xmlns="http://www.w3.org/2000/svg" width="18" height="18" viewBox="0 0 18 18" fill="none">
  <path
    d="M2.77188 17.2C2.30194 17.2 1.85126 17.0133 1.51897 16.681C1.18668 16.3487 1 15.8981 1 15.4281V2.77188C1 1.7938 1.7938 1 2.77188 1H11.3781C12.3562 1 13.15 1.7938 13.15 2.77188V15.4281C13.15 15.5139 13.1439 15.5982 13.1318 15.6813H15.4281C15.4953 15.6813 15.5596 15.6546 15.6071 15.6071C15.6546 15.5596 15.6813 15.4953 15.6813 15.4281V9.38856C15.6813 9.34692 15.671 9.30592 15.6514 9.26918C15.6318 9.23245 15.6035 9.20111 15.5689 9.17796L14.5007 8.46618C14.4177 8.41086 14.3464 8.33975 14.291 8.2569C14.2355 8.17404 14.1968 8.08107 14.1773 7.98329C14.1577 7.88551 14.1576 7.78484 14.177 7.68702C14.1963 7.5892 14.2348 7.49614 14.2901 7.41318C14.3454 7.33021 14.4165 7.25894 14.4994 7.20346C14.5822 7.14797 14.6752 7.10935 14.773 7.08979C14.8707 7.07024 14.9714 7.07013 15.0692 7.08948C15.1671 7.10883 15.2601 7.14726 15.3431 7.20258L16.4113 7.91436C16.9044 8.24343 17.2 8.79625 17.2 9.38856V15.4281C17.2 15.8981 17.0133 16.3487 16.681 16.681C16.3487 17.0133 15.8981 17.2 15.4281 17.2H11.8844C11.8171 17.1995 11.75 17.1907 11.6849 17.1737C11.585 17.1912 11.4828 17.2 11.3781 17.2H8.34063C8.13923 17.2 7.94608 17.12 7.80367 16.9776C7.66126 16.8352 7.58125 16.642 7.58125 16.4406V15.175H6.56875V16.4406C6.56875 16.642 6.48875 16.8352 6.34633 16.9776C6.20392 17.12 6.01077 17.2 5.80938 17.2H2.77188ZM2.51875 15.4281C2.51875 15.5679 2.63215 15.6813 2.77188 15.6813H5.05V14.4156C5.05 14.2142 5.13001 14.0211 5.27242 13.8787C5.41483 13.7363 5.60798 13.6563 5.80938 13.6563H8.34063C8.54202 13.6563 8.73517 13.7363 8.87758 13.8787C9.02 14.0211 9.1 14.2142 9.1 14.4156V15.6813H11.3781C11.4453 15.6813 11.5096 15.6546 11.5571 15.6071C11.6046 15.5596 11.6313 15.4953 11.6313 15.4281V2.77188C11.6313 2.70474 11.6046 2.64036 11.5571 2.59289C11.5096 2.54542 11.4453 2.51875 11.3781 2.51875H2.77188C2.70474 2.51875 2.64036 2.54542 2.59289 2.59289C2.54542 2.64036 2.51875 2.70474 2.51875 2.77188V15.4281ZM4.79688 7.075H5.30313C5.50452 7.075 5.69767 7.15501 5.84008 7.29742C5.98249 7.43983 6.0625 7.63298 6.0625 7.83438C6.0625 8.03577 5.98249 8.22892 5.84008 8.37133C5.69767 8.51375 5.50452 8.59375 5.30313 8.59375H4.79688C4.59548 8.59375 4.40233 8.51375 4.25992 8.37133C4.11751 8.22892 4.0375 8.03577 4.0375 7.83438C4.0375 7.63298 4.11751 7.43983 4.25992 7.29742C4.40233 7.15501 4.59548 7.075 4.79688 7.075ZM4.0375 4.79688C4.0375 4.59548 4.11751 4.40233 4.25992 4.25992C4.40233 4.11751 4.59548 4.0375 4.79688 4.0375H5.30313C5.50452 4.0375 5.69767 4.11751 5.84008 4.25992C5.98249 4.40233 6.0625 4.59548 6.0625 4.79688C6.0625 4.99827 5.98249 5.19142 5.84008 5.33383C5.69767 5.47624 5.50452 5.55625 5.30313 5.55625H4.79688C4.59548 5.55625 4.40233 5.47624 4.25992 5.33383C4.11751 5.19142 4.0375 4.99827 4.0375 4.79688ZM8.0875 7.83438C8.0875 7.63298 8.16751 7.43983 8.30992 7.29742C8.45233 7.15501 8.64548 7.075 8.84688 7.075H9.35313C9.55452 7.075 9.74767 7.15501 9.89008 7.29742C10.0325 7.43983 10.1125 7.63298 10.1125 7.83438C10.1125 8.03577 10.0325 8.22892 9.89008 8.37133C9.74767 8.51375 9.55452 8.59375 9.35313 8.59375H8.84688C8.64548 8.59375 8.45233 8.51375 8.30992 8.37133C8.16751 8.22892 8.0875 8.03577 8.0875 7.83438ZM8.84688 4.0375H9.35313C9.55452 4.0375 9.74767 4.11751 9.89008 4.25992C10.0325 4.40233 10.1125 4.59548 10.1125 4.79688C10.1125 4.99827 10.0325 5.19142 9.89008 5.33383C9.74767 5.47624 9.55452 5.55625 9.35313 5.55625H8.84688C8.64548 5.55625 8.45233 5.47624 8.30992 5.33383C8.16751 5.19142 8.0875 4.99827 8.0875 4.79688C8.0875 4.59548 8.16751 4.40233 8.30992 4.25992C8.45233 4.11751 8.64548 4.0375 8.84688 4.0375ZM4.0375 10.8719C4.0375 10.6705 4.11751 10.4773 4.25992 10.3349C4.40233 10.1925 4.59548 10.1125 4.79688 10.1125H5.30313C5.50452 10.1125 5.69767 10.1925 5.84008 10.3349C5.98249 10.4773 6.0625 10.6705 6.0625 10.8719C6.0625 11.0733 5.98249 11.2664 5.84008 11.4088C5.69767 11.5512 5.50452 11.6313 5.30313 11.6313H4.79688C4.59548 11.6313 4.40233 11.5512 4.25992 11.4088C4.11751 11.2664 4.0375 11.0733 4.0375 10.8719ZM8.84688 10.1125H9.35313C9.55452 10.1125 9.74767 10.1925 9.89008 10.3349C10.0325 10.4773 10.1125 10.6705 10.1125 10.8719C10.1125 11.0733 10.0325 11.2664 9.89008 11.4088C9.74767 11.5512 9.55452 11.6313 9.35313 11.6313H8.84688C8.64548 11.6313 8.45233 11.5512 8.30992 11.4088C8.16751 11.2664 8.0875 11.0733 8.0875 10.8719C8.0875 10.6705 8.16751 10.4773 8.30992 10.3349C8.45233 10.1925 8.64548 10.1125 8.84688 10.1125Z"
    fill="currentColor" />
</svg>