<svg width="18" height="18" viewBox="0 0 18 18" fill="none" xmlns="http://www.w3.org/2000/svg">
<g clip-path="url(#clip0_12157_125298)">
<path d="M2.67227 17.0984C2.20234 17.0984 1.75165 16.9118 1.41936 16.5795C1.08707 16.2472 0.900391 15.7965 0.900391 15.3266L0.900391 2.67031C0.900391 1.69224 1.69419 0.898438 2.67227 0.898438H11.2785C12.2566 0.898438 13.0504 1.69224 13.0504 2.67031V15.3266C13.0504 15.4123 13.0443 15.4967 13.0322 15.5797H15.3285C15.3956 15.5797 15.46 15.553 15.5075 15.5055C15.555 15.4581 15.5816 15.3937 15.5816 15.3266V9.287C15.5817 9.24536 15.5714 9.20436 15.5518 9.16762C15.5322 9.13088 15.5039 9.09955 15.4693 9.0764L14.4011 8.36461C14.3181 8.3093 14.2468 8.23819 14.1913 8.15533C14.1359 8.07248 14.0972 7.97951 14.0777 7.88173C14.0581 7.78395 14.058 7.68328 14.0774 7.58545C14.0967 7.48763 14.1352 7.39458 14.1905 7.31161C14.2458 7.22864 14.3169 7.15738 14.3997 7.1019C14.4826 7.04641 14.5756 7.00779 14.6733 6.98823C14.7711 6.96867 14.8718 6.96857 14.9696 6.98792C15.0674 7.00727 15.1605 7.0457 15.2435 7.10101L16.3117 7.8128C16.8047 8.14186 17.1004 8.69469 17.1004 9.287V15.3266C17.1004 15.7965 16.9137 16.2472 16.5814 16.5795C16.2491 16.9118 15.7984 17.0984 15.3285 17.0984H11.7848C11.7174 17.098 11.6504 17.0891 11.5853 17.0721C11.4854 17.0897 11.3831 17.0984 11.2785 17.0984H8.24102C8.03962 17.0984 7.84647 17.0184 7.70406 16.876C7.56165 16.7336 7.48164 16.5405 7.48164 16.3391V15.0734H6.46914V16.3391C6.46914 16.5405 6.38914 16.7336 6.24673 16.876C6.10431 17.0184 5.91116 17.0984 5.70977 17.0984H2.67227ZM2.41914 15.3266C2.41914 15.4663 2.53254 15.5797 2.67227 15.5797H4.95039V14.3141C4.95039 14.1127 5.0304 13.9195 5.17281 13.7771C5.31522 13.6347 5.50837 13.5547 5.70977 13.5547H8.24102C8.44241 13.5547 8.63556 13.6347 8.77798 13.7771C8.92039 13.9195 9.00039 14.1127 9.00039 14.3141V15.5797H11.2785C11.3456 15.5797 11.41 15.553 11.4575 15.5055C11.505 15.4581 11.5316 15.3937 11.5316 15.3266V2.67031C11.5316 2.60318 11.505 2.5388 11.4575 2.49133C11.41 2.44386 11.3456 2.41719 11.2785 2.41719H2.67227C2.60513 2.41719 2.54075 2.44386 2.49328 2.49133C2.44581 2.5388 2.41914 2.60318 2.41914 2.67031V15.3266ZM4.69727 6.97344H5.20352C5.40491 6.97344 5.59806 7.05344 5.74048 7.19585C5.88289 7.33826 5.96289 7.53141 5.96289 7.73281C5.96289 7.93421 5.88289 8.12736 5.74048 8.26977C5.59806 8.41218 5.40491 8.49219 5.20352 8.49219H4.69727C4.49587 8.49219 4.30272 8.41218 4.16031 8.26977C4.0179 8.12736 3.93789 7.93421 3.93789 7.73281C3.93789 7.53141 4.0179 7.33826 4.16031 7.19585C4.30272 7.05344 4.49587 6.97344 4.69727 6.97344ZM3.93789 4.69531C3.93789 4.49391 4.0179 4.30076 4.16031 4.15835C4.30272 4.01594 4.49587 3.93594 4.69727 3.93594H5.20352C5.40491 3.93594 5.59806 4.01594 5.74048 4.15835C5.88289 4.30076 5.96289 4.49391 5.96289 4.69531C5.96289 4.89671 5.88289 5.08986 5.74048 5.23227C5.59806 5.37468 5.40491 5.45469 5.20352 5.45469H4.69727C4.49587 5.45469 4.30272 5.37468 4.16031 5.23227C4.0179 5.08986 3.93789 4.89671 3.93789 4.69531ZM7.98789 7.73281C7.98789 7.53141 8.0679 7.33826 8.21031 7.19585C8.35272 7.05344 8.54587 6.97344 8.74727 6.97344H9.25352C9.45492 6.97344 9.64806 7.05344 9.79047 7.19585C9.93289 7.33826 10.0129 7.53141 10.0129 7.73281C10.0129 7.93421 9.93289 8.12736 9.79047 8.26977C9.64806 8.41218 9.45492 8.49219 9.25352 8.49219H8.74727C8.54587 8.49219 8.35272 8.41218 8.21031 8.26977C8.0679 8.12736 7.98789 7.93421 7.98789 7.73281ZM8.74727 3.93594H9.25352C9.45492 3.93594 9.64806 4.01594 9.79047 4.15835C9.93289 4.30076 10.0129 4.49391 10.0129 4.69531C10.0129 4.89671 9.93289 5.08986 9.79047 5.23227C9.64806 5.37468 9.45492 5.45469 9.25352 5.45469H8.74727C8.54587 5.45469 8.35272 5.37468 8.21031 5.23227C8.0679 5.08986 7.98789 4.89671 7.98789 4.69531C7.98789 4.49391 8.0679 4.30076 8.21031 4.15835C8.35272 4.01594 8.54587 3.93594 8.74727 3.93594ZM3.93789 10.7703C3.93789 10.5689 4.0179 10.3758 4.16031 10.2334C4.30272 10.0909 4.49587 10.0109 4.69727 10.0109H5.20352C5.40491 10.0109 5.59806 10.0909 5.74048 10.2334C5.88289 10.3758 5.96289 10.5689 5.96289 10.7703C5.96289 10.9717 5.88289 11.1649 5.74048 11.3073C5.59806 11.4497 5.40491 11.5297 5.20352 11.5297H4.69727C4.49587 11.5297 4.30272 11.4497 4.16031 11.3073C4.0179 11.1649 3.93789 10.9717 3.93789 10.7703ZM8.74727 10.0109H9.25352C9.45492 10.0109 9.64806 10.0909 9.79047 10.2334C9.93289 10.3758 10.0129 10.5689 10.0129 10.7703C10.0129 10.9717 9.93289 11.1649 9.79047 11.3073C9.64806 11.4497 9.45492 11.5297 9.25352 11.5297H8.74727C8.54587 11.5297 8.35272 11.4497 8.21031 11.3073C8.0679 11.1649 7.98789 10.9717 7.98789 10.7703C7.98789 10.5689 8.0679 10.3758 8.21031 10.2334C8.35272 10.0909 8.54587 10.0109 8.74727 10.0109Z" fill="white"/>
</g>
<defs>
<clipPath id="clip0_12157_125298">
<rect width="18" height="18" fill="white"/>
</clipPath>
</defs>
</svg>
