<svg width="24" height="24" viewBox="0 0 24 24" fill="none" xmlns="http://www.w3.org/2000/svg">
<path d="M2 21H10C10.2652 21 10.5196 20.8947 10.7071 20.7071C10.8946 20.5196 11 20.2653 11 20C11 19.7348 10.8946 19.4805 10.7071 19.2929C10.5196 19.1054 10.2652 19 10 19H3.071C3.31366 17.3349 4.14714 15.8125 5.41925 14.711C6.69136 13.6094 8.31724 13.0021 10 13C11.1775 13.0103 12.3214 12.6082 13.2336 11.8635C14.1457 11.1189 14.7686 10.0785 14.9943 8.92283C15.2199 7.76713 15.0341 6.56891 14.4691 5.53581C13.904 4.50272 12.9953 3.69988 11.9005 3.26642C10.8057 2.83296 9.59368 2.7962 8.47459 3.16252C7.3555 3.52884 6.39984 4.27514 5.77322 5.27209C5.14661 6.26905 4.88855 7.45381 5.04375 8.62106C5.19895 9.78831 5.75765 10.8645 6.623 11.663C4.96321 12.3364 3.54177 13.4891 2.54021 14.9741C1.53864 16.4591 1.00242 18.2089 1 20C1 20.2653 1.10536 20.5196 1.29289 20.7071C1.48043 20.8947 1.73478 21 2 21ZM10 5.00004C10.5933 5.00004 11.1734 5.17599 11.6667 5.50563C12.1601 5.83528 12.5446 6.30381 12.7716 6.85199C12.9987 7.40017 13.0581 8.00337 12.9424 8.58531C12.8266 9.16726 12.5409 9.70181 12.1213 10.1214C11.7018 10.5409 11.1672 10.8266 10.5853 10.9424C10.0033 11.0582 9.40013 10.9987 8.85195 10.7717C8.30377 10.5446 7.83524 10.1601 7.50559 9.66675C7.17595 9.17341 7 8.59339 7 8.00004C7 7.20439 7.31607 6.44133 7.87868 5.87872C8.44129 5.31611 9.20435 5.00004 10 5.00004ZM23 16C23 16.2653 22.8946 16.5196 22.7071 16.7071C22.5196 16.8947 22.2652 17 22 17H19V20C19 20.2653 18.8946 20.5196 18.7071 20.7071C18.5196 20.8947 18.2652 21 18 21C17.7348 21 17.4804 20.8947 17.2929 20.7071C17.1054 20.5196 17 20.2653 17 20V17H14C13.7348 17 13.4804 16.8947 13.2929 16.7071C13.1054 16.5196 13 16.2653 13 16C13 15.7348 13.1054 15.4805 13.2929 15.2929C13.4804 15.1054 13.7348 15 14 15H17V12C17 11.7348 17.1054 11.4805 17.2929 11.2929C17.4804 11.1054 17.7348 11 18 11C18.2652 11 18.5196 11.1054 18.7071 11.2929C18.8946 11.4805 19 11.7348 19 12V15H22C22.2652 15 22.5196 15.1054 22.7071 15.2929C22.8946 15.4805 23 15.7348 23 16Z" fill="currentColor"/>
</svg>
