<svg width="24" height="24" viewBox="0 0 24 24" fill="none" xmlns="http://www.w3.org/2000/svg">
<g id="Icons">
<path id="plus (Stroke)" fill-rule="evenodd" clip-rule="evenodd" d="M11.9997 4.875C12.2068 4.875 12.3747 5.04289 12.3747 5.25L12.3748 11.7693L18.8941 11.7693C19.1012 11.7693 19.2691 11.9372 19.2691 12.1443C19.2691 12.3514 19.1012 12.5193 18.8941 12.5193L12.3748 12.5193L12.3748 19.0386C12.3748 19.2457 12.2069 19.4136 11.9998 19.4136C11.7927 19.4136 11.6248 19.2457 11.6248 19.0386L11.6248 12.5193L5.10547 12.5193C4.89836 12.5193 4.73047 12.3514 4.73047 12.1443C4.73047 11.9372 4.89836 11.7693 5.10547 11.7693L11.6248 11.7693L11.6247 5.25C11.6247 5.0429 11.7926 4.875 11.9997 4.875Z" fill="white" stroke="white" stroke-width="0.7" stroke-linecap="round" stroke-linejoin="round"/>
</g>
</svg>
