<svg width="18" height="18" viewBox="0 0 18 18" fill="none" xmlns="http://www.w3.org/2000/svg">
<g id="Icon Side Bar">
<path id="Union" fill-rule="evenodd" clip-rule="evenodd" d="M15.25 2.75H2.75C2.33579 2.75 2 3.08579 2 3.5V7C2 7.41421 2.33579 7.75 2.75 7.75H15.25C15.6642 7.75 16 7.41421 16 7V3.5C16 3.08579 15.6642 2.75 15.25 2.75ZM2.75 1.5C1.64543 1.5 0.75 2.39543 0.75 3.5V7C0.75 8.10457 1.64543 9 2.75 9H15.25C16.3546 9 17.25 8.10457 17.25 7V3.5C17.25 2.39543 16.3546 1.5 15.25 1.5H2.75ZM10 11.75H2.75C2.33579 11.75 2 12.0858 2 12.5V14.5C2 14.9142 2.33579 15.25 2.75 15.25H10C10.4142 15.25 10.75 14.9142 10.75 14.5V12.5C10.75 12.0858 10.4142 11.75 10 11.75ZM2.75 10.5C1.64543 10.5 0.75 11.3954 0.75 12.5V14.5C0.75 15.6046 1.64543 16.5 2.75 16.5H10C11.1046 16.5 12 15.6046 12 14.5V12.5C12 11.3954 11.1046 10.5 10 10.5H2.75ZM14.75 11.75H15.25C15.6642 11.75 16 12.0858 16 12.5V14.5C16 14.9142 15.6642 15.25 15.25 15.25H14.75C14.3358 15.25 14 14.9142 14 14.5V12.5C14 12.0858 14.3358 11.75 14.75 11.75ZM12.75 12.5C12.75 11.3954 13.6454 10.5 14.75 10.5H15.25C16.3546 10.5 17.25 11.3954 17.25 12.5V14.5C17.25 15.6046 16.3546 16.5 15.25 16.5H14.75C13.6454 16.5 12.75 15.6046 12.75 14.5V12.5Z" fill="black"/>
</g>
</svg>
