<svg width="18" height="18" viewBox="0 0 18 18" fill="none" xmlns="http://www.w3.org/2000/svg">
<g id="Group">
<path id="Vector" d="M0.666992 16.5C0.667089 15.4508 0.91482 14.4165 1.39004 13.4811C1.86526 12.5457 2.55455 11.7356 3.40185 11.1169C4.24914 10.4981 5.23053 10.088 6.26619 9.92C7.30185 9.752 8.36254 9.83082 9.36199 10.15" stroke="black" stroke-width="1.4" stroke-linecap="round" stroke-linejoin="round"/>
<path id="Vector_2" d="M7.33366 9.83333C9.63485 9.83333 11.5003 7.96785 11.5003 5.66667C11.5003 3.36548 9.63485 1.5 7.33366 1.5C5.03247 1.5 3.16699 3.36548 3.16699 5.66667C3.16699 7.96785 5.03247 9.83333 7.33366 9.83333Z" stroke="black" stroke-width="1.4" stroke-linecap="round" stroke-linejoin="round"/>
<path id="Vector_3" d="M14 16.5C15.3807 16.5 16.5 15.3807 16.5 14C16.5 12.6193 15.3807 11.5 14 11.5C12.6193 11.5 11.5 12.6193 11.5 14C11.5 15.3807 12.6193 16.5 14 16.5Z" stroke="black" stroke-width="1.66667" stroke-linecap="round" stroke-linejoin="round"/>
<path id="Vector_4" d="M15.2503 10.917L14.917 11.667M13.0837 16.3337L12.7503 17.0837M17.0837 15.2503L16.3337 14.917M11.667 13.0837L10.917 12.7503M17.0837 12.7503L16.3337 13.0837M11.667 14.917L10.917 15.2503M15.2503 17.0837L14.917 16.3337M13.0837 11.667L12.7503 10.917" stroke="black" stroke-width="1.4" stroke-linecap="round" stroke-linejoin="round"/>
</g>
</svg>
