<svg width="12" height="12" viewBox="0 0 12 12" fill="none" xmlns="http://www.w3.org/2000/svg">
  <path
    d="M3.49996 2C3.36738 2 3.24022 2.05266 3.14646 2.14639L1.14646 4.14639C1.05538 4.24069 1.00498 4.367 1.00612 4.49809C1.00726 4.62919 1.05985 4.7546 1.15255 4.8473C1.24525 4.94001 1.37066 4.99259 1.50176 4.99373C1.63286 4.99487 1.75916 4.94447 1.85346 4.85339L2.99996 3.70689V9.49989C2.99996 9.6325 3.05264 9.75968 3.14641 9.85345C3.24017 9.94722 3.36735 9.99989 3.49996 9.99989C3.63257 9.99989 3.75974 9.94722 3.85351 9.85345C3.94728 9.75968 3.99996 9.6325 3.99996 9.49989V3.70689L5.14646 4.85339C5.24076 4.94447 5.36706 4.99487 5.49816 4.99373C5.62926 4.99259 5.75466 4.94001 5.84737 4.8473C5.94007 4.7546 5.99266 4.62919 5.9938 4.49809C5.99494 4.367 5.94454 4.24069 5.85346 4.14639L3.85346 2.14639C3.7597 2.05266 3.63254 2 3.49996 2Z"
    fill="currentColor" />
  <path
    d="M7.99996 8.293V2.5C7.99996 2.36739 8.05264 2.24021 8.14641 2.14645C8.24017 2.05268 8.36735 2 8.49996 2C8.63257 2 8.75974 2.05268 8.85351 2.14645C8.94728 2.24021 8.99996 2.36739 8.99996 2.5V8.293L10.1465 7.1465C10.2408 7.05542 10.3671 7.00502 10.4982 7.00616C10.6293 7.0073 10.7547 7.05989 10.8474 7.15259C10.9401 7.24529 10.9927 7.3707 10.9938 7.5018C10.9949 7.6329 10.9445 7.7592 10.8535 7.8535L8.85346 9.8535C8.7597 9.94724 8.63254 9.99989 8.49996 9.99989C8.36738 9.99989 8.24022 9.94724 8.14646 9.8535L6.14646 7.8535C6.05538 7.7592 6.00498 7.6329 6.00612 7.5018C6.00726 7.3707 6.05985 7.24529 6.15255 7.15259C6.24525 7.05989 6.37066 7.0073 6.50176 7.00616C6.63286 7.00502 6.75916 7.05542 6.85346 7.1465L7.99996 8.293Z"
    fill="currentColor" />
</svg>