<svg width="20" height="20" viewBox="0 0 20 20" fill="none" xmlns="http://www.w3.org/2000/svg">
<g id="Group">
<path id="Vector" d="M18.5 3.74219H1.5M16.833 6.24219L16.373 13.1422C16.196 15.7962 16.108 17.1232 15.243 17.9322C14.378 18.7422 13.047 18.7422 10.387 18.7422H9.613C6.953 18.7422 5.622 18.7422 4.757 17.9322C3.892 17.1232 3.803 15.7962 3.627 13.1422L3.167 6.24219M7.5 8.74219L8 13.7422M12.5 8.74219L12 13.7422" stroke="currentColor" stroke-width="1.25" stroke-linecap="round"/>
<path id="Vector_2" d="M4.5 3.74219H4.61C5.01245 3.7319 5.40242 3.60041 5.72892 3.3649C6.05543 3.12939 6.30325 2.80083 6.44 2.42219L6.474 2.31919L6.571 2.02819C6.654 1.77919 6.696 1.65519 6.751 1.54919C6.85921 1.34158 7.01451 1.16218 7.20448 1.02535C7.39444 0.888514 7.6138 0.798048 7.845 0.761188C7.962 0.742188 8.093 0.742188 8.355 0.742188H11.645C11.907 0.742188 12.038 0.742188 12.155 0.761188C12.3862 0.798048 12.6056 0.888514 12.7955 1.02535C12.9855 1.16218 13.1408 1.34158 13.249 1.54919C13.304 1.65519 13.346 1.77919 13.429 2.02819L13.526 2.31919C13.6527 2.74046 13.9148 3.1082 14.2717 3.36545C14.6285 3.6227 15.0603 3.75512 15.5 3.74219" stroke="currentColor" stroke-width="1.25"/>
</g>
</svg>
